<?xml version="1.0" encoding="utf-8"?>
<!-- Generator: Adobe Illustrator 22.1.0, SVG Export Plug-In . SVG Version: 6.00 Build 0)  -->
<svg version="1.1" id="Layer_1" xmlns="http://www.w3.org/2000/svg" xmlns:xlink="http://www.w3.org/1999/xlink" x="0px" y="0px"
	 viewBox="0 0 414.6 290.8" style="enable-background:new 0 0 414.6 290.8;" xml:space="preserve">
<style type="text/css">
	.st0{fill:#1a1a1a;}
</style>
<g>
	<g>
		<path class="st0" d="M207,276.4c-0.1,0-0.1,0-0.1,0c-0.1,0-0.1,0-0.1,0c-0.9,0-1.6,0.7-1.6,1.6s0.7,1.6,1.6,1.6c0.1,0,0.1,0,0.1,0
			c0.1,0,0.1,0,0.1,0c0.9,0,1.6-0.7,1.6-1.6S207.9,276.4,207,276.4"/>
		<path class="st0" d="M199.4,276.2c-0.9-0.1-1.6,0.6-1.7,1.5v0.1c0,0.8,0.6,1.5,1.5,1.6h0.1c0.8,0,1.5-0.7,1.6-1.5v-0.1
			C200.9,276.9,200.3,276.2,199.4,276.2"/>
		<path class="st0" d="M214.3,276.1c-0.8,0.1-1.5,0.8-1.5,1.6v0.1c0,0.8,0.7,1.5,1.6,1.5h0.1c0.8-0.1,1.5-0.7,1.5-1.6v-0.1
			C215.9,276.7,215.2,276.1,214.3,276.1"/>
		<path class="st0" d="M192.2,275.6c-0.9-0.1-1.6,0.5-1.7,1.4v0.2c0,0.8,0.6,1.5,1.4,1.6c0.1,0,0.1,0,0.2,0c0.8,0,1.5-0.6,1.6-1.4
			v-0.3C193.6,276.3,193,275.6,192.2,275.6"/>
		<path class="st0" d="M221.6,275.5c-0.8,0.1-1.4,0.8-1.4,1.6c0,0.1,0,0.1,0,0.2c0.1,0.8,0.8,1.4,1.6,1.4c0.1,0,0.1,0,0.2,0
			c0.8-0.1,1.4-0.8,1.4-1.6c0-0.1,0-0.1,0-0.2C223.2,276,222.4,275.4,221.6,275.5"/>
		<path class="st0" d="M185,274.5c-0.9-0.1-1.7,0.4-1.8,1.3c0,0.1,0,0.2,0,0.3c0,0.7,0.5,1.4,1.3,1.5c0.1,0,0.2,0,0.3,0
			c0.8,0,1.4-0.5,1.6-1.3c0-0.1,0-0.2,0-0.3C186.3,275.3,185.7,274.7,185,274.5"/>
		<path class="st0" d="M228.8,274.5c-0.8,0.1-1.3,0.8-1.3,1.5c0,0.1,0,0.2,0,0.3c0.1,0.8,0.8,1.3,1.6,1.3c0.1,0,0.2,0,0.3,0
			c0.8-0.1,1.3-0.8,1.3-1.5c0-0.1,0-0.2,0-0.3C230.4,274.9,229.6,274.4,228.8,274.5"/>
		<path class="st0" d="M177.8,273.1c-0.8-0.2-1.7,0.3-1.9,1.2c0,0.1,0,0.2,0,0.4c0,0.7,0.5,1.4,1.2,1.5c0.1,0,0.2,0,0.4,0
			c0.7,0,1.4-0.5,1.5-1.2c0-0.1,0-0.2,0-0.4C179.1,274,178.6,273.3,177.8,273.1"/>
		<path class="st0" d="M235.9,273.1c-0.7,0.2-1.2,0.8-1.2,1.5c0,0.1,0,0.2,0,0.4c0.2,0.7,0.8,1.2,1.5,1.2c0.1,0,0.2,0,0.3,0
			c0.7-0.2,1.2-0.8,1.2-1.5c0-0.1,0-0.2,0-0.4C237.6,273.4,236.7,272.9,235.9,273.1"/>
		<path class="st0" d="M170.8,271.3c-0.8-0.2-1.7,0.2-2,1.1c0,0.1-0.1,0.3-0.1,0.4c0,0.7,0.4,1.3,1.1,1.5c0.1,0,0.3,0.1,0.4,0.1
			c0.7,0,1.3-0.5,1.5-1.1c0-0.1,0.1-0.3,0.1-0.4C171.9,272.2,171.5,271.5,170.8,271.3"/>
		<path class="st0" d="M242.9,271.3c-0.7,0.2-1.1,0.8-1.1,1.5c0,0.1,0,0.3,0.1,0.4c0.2,0.7,0.8,1.1,1.5,1.1c0.1,0,0.3,0,0.4-0.1
			c0.7-0.2,1.1-0.8,1.1-1.5c0-0.1,0-0.3-0.1-0.4C244.7,271.5,243.8,271,242.9,271.3"/>
		<path class="st0" d="M163.8,269.1c-0.8-0.3-1.7,0.1-2,1c-0.1,0.2-0.1,0.3-0.1,0.5c0,0.7,0.4,1.3,1,1.5c0.2,0.1,0.3,0.1,0.5,0.1
			c0.7,0,1.3-0.4,1.5-1.1c0.1-0.2,0.1-0.3,0.1-0.5C164.9,270,164.5,269.4,163.8,269.1"/>
		<path class="st0" d="M249.9,269.1c-0.7,0.2-1.1,0.8-1.1,1.5c0,0.2,0,0.3,0.1,0.5c0.2,0.7,0.8,1.1,1.5,1.1c0.2,0,0.3,0,0.5-0.1
			c0.7-0.2,1.1-0.9,1.1-1.5c0-0.2,0-0.3-0.1-0.5C251.6,269.2,250.7,268.8,249.9,269.1"/>
		<path class="st0" d="M157,266.6c-0.8-0.3-1.7,0.1-2,0.9c-0.1,0.2-0.1,0.4-0.1,0.6c0,0.6,0.4,1.2,1,1.4c0.2,0.1,0.4,0.1,0.6,0.1
			c0.6,0,1.2-0.4,1.5-1c0.1-0.2,0.1-0.4,0.1-0.6C158,267.4,157.6,266.8,157,266.6"/>
		<path class="st0" d="M256.7,266.5c-0.6,0.3-1,0.8-1,1.5c0,0.2,0,0.4,0.1,0.6c0.3,0.6,0.8,1,1.5,1c0.2,0,0.4,0,0.6-0.1l0,0
			c0.6-0.3,1-0.8,1-1.5c0-0.2,0-0.4-0.1-0.6C258.4,266.5,257.5,266.1,256.7,266.5"/>
		<path class="st0" d="M150.4,263.6c-0.8-0.4-1.7,0-2.1,0.7c-0.1,0.2-0.2,0.5-0.2,0.7c0,0.6,0.3,1.2,0.9,1.4
			c0.2,0.1,0.5,0.2,0.7,0.2c0.6,0,1.2-0.3,1.4-0.9c0.1-0.2,0.2-0.5,0.2-0.7C151.3,264.4,150.9,263.9,150.4,263.6"/>
		<path class="st0" d="M263.3,263.5c-0.6,0.3-0.9,0.8-0.9,1.4c0,0.2,0.1,0.5,0.2,0.7c0.3,0.6,0.8,0.9,1.4,0.9c0.2,0,0.5-0.1,0.7-0.2
			l0,0c0.6-0.3,0.9-0.8,0.9-1.4c0-0.2,0-0.5-0.1-0.7C265,263.4,264.1,263.1,263.3,263.5"/>
		<path class="st0" d="M143.9,260.3c-0.8-0.4-1.7-0.1-2.1,0.6c-0.1,0.2-0.2,0.5-0.2,0.7c0,0.6,0.3,1.1,0.8,1.4
			c0.2,0.1,0.5,0.2,0.8,0.2c0.6,0,1.1-0.3,1.4-0.8c0.1-0.2,0.2-0.5,0.2-0.7C144.7,261.1,144.4,260.6,143.9,260.3"/>
		<path class="st0" d="M269.8,260.2L269.8,260.2c-0.5,0.3-0.8,0.8-0.8,1.4c0,0.3,0.1,0.5,0.2,0.7c0.3,0.5,0.8,0.8,1.4,0.8
			c0.3,0,0.5-0.1,0.8-0.2c0.5-0.3,0.8-0.8,0.8-1.4c0-0.3-0.1-0.5-0.2-0.7C271.5,260,270.5,259.7,269.8,260.2"/>
		<path class="st0" d="M137.6,256.6c-0.7-0.5-1.7-0.2-2.2,0.5c-0.2,0.3-0.2,0.6-0.2,0.9c0,0.5,0.3,1,0.7,1.3
			c0.3,0.2,0.5,0.2,0.8,0.2c0.5,0,1-0.3,1.3-0.7c0.2-0.3,0.3-0.6,0.2-0.9C138.3,257.4,138.1,256.9,137.6,256.6"/>
		<path class="st0" d="M276,256.5c-0.5,0.3-0.7,0.8-0.7,1.3c0,0.3,0.1,0.6,0.2,0.9c0.3,0.5,0.8,0.7,1.3,0.7c0.3,0,0.6-0.1,0.8-0.2
			c0.5-0.3,0.7-0.8,0.7-1.3c0-0.3-0.1-0.6-0.2-0.9C277.7,256.2,276.8,256,276,256.5"/>
		<path class="st0" d="M131.5,252.6c-0.7-0.5-1.7-0.3-2.2,0.4c-0.2,0.3-0.3,0.6-0.3,0.9c0,0.5,0.2,1,0.7,1.3
			c0.3,0.2,0.6,0.3,0.9,0.3c0.5,0,1-0.2,1.3-0.7c0.2-0.3,0.3-0.6,0.3-0.9C132.2,253.4,132,252.9,131.5,252.6"/>
		<path class="st0" d="M282.1,252.4c-0.4,0.3-0.7,0.8-0.7,1.3c0,0.3,0.1,0.6,0.3,0.9c0.3,0.4,0.8,0.7,1.3,0.7c0.3,0,0.6-0.1,0.9-0.3
			c0.4-0.3,0.7-0.8,0.7-1.3c0-0.3-0.1-0.6-0.3-0.9C283.8,252.1,282.8,251.9,282.1,252.4"/>
		<path class="st0" d="M125.7,248.2c-0.7-0.5-1.7-0.4-2.2,0.3c-0.2,0.3-0.3,0.6-0.3,1c0,0.5,0.2,0.9,0.6,1.2c0.3,0.2,0.6,0.3,1,0.3
			c0.5,0,0.9-0.2,1.2-0.6c0.2-0.3,0.3-0.6,0.3-1S126.1,248.5,125.7,248.2"/>
		<path class="st0" d="M287.9,248.1c-0.4,0.3-0.6,0.8-0.6,1.2c0,0.3,0.1,0.7,0.3,1c0.3,0.4,0.8,0.6,1.2,0.6c0.3,0,0.7-0.1,1-0.3
			c0.4-0.3,0.6-0.8,0.6-1.2c0-0.3-0.1-0.7-0.3-1C289.6,247.7,288.6,247.5,287.9,248.1"/>
		<path class="st0" d="M117.9,243.7c-0.3,0.3-0.4,0.7-0.4,1c0,0.4,0.2,0.9,0.5,1.2c0.3,0.3,0.7,0.4,1,0.4c0.4,0,0.9-0.2,1.2-0.5
			s0.4-0.7,0.4-1c0-0.4-0.2-0.9-0.5-1.2C119.4,243,118.4,243,117.9,243.7"/>
		<path class="st0" d="M293.5,243.4c-0.4,0.3-0.5,0.8-0.5,1.2c0,0.4,0.1,0.7,0.4,1c0.3,0.4,0.7,0.5,1.2,0.5c0.4,0,0.7-0.1,1-0.4
			c0.4-0.3,0.5-0.8,0.5-1.2c0-0.4-0.1-0.7-0.4-1C295.1,242.9,294.2,242.8,293.5,243.4"/>
		<path class="st0" d="M112.5,238.6c-0.3,0.3-0.5,0.7-0.5,1.1s0.2,0.8,0.5,1.1c0.3,0.3,0.7,0.5,1.1,0.5c0.4,0,0.8-0.2,1.1-0.5
			s0.5-0.7,0.5-1.1s-0.2-0.8-0.5-1.1C114.1,238,113.1,238,112.5,238.6"/>
		<path class="st0" d="M298.8,238.4c-0.3,0.3-0.5,0.7-0.5,1.1s0.1,0.8,0.5,1.1c0.3,0.3,0.7,0.5,1.1,0.5s0.8-0.2,1.1-0.5
			c0.3-0.3,0.5-0.7,0.5-1.1s-0.2-0.8-0.5-1.1C300.4,237.8,299.4,237.8,298.8,238.4"/>
		<path class="st0" d="M107.5,233.2c-0.3,0.3-0.5,0.7-0.5,1.2c0,0.4,0.1,0.8,0.4,1.1c0.3,0.3,0.7,0.5,1.2,0.5c0.4,0,0.8-0.1,1.1-0.4
			s0.5-0.7,0.5-1.2c0-0.4-0.1-0.8-0.4-1.1C109.1,232.7,108.1,232.6,107.5,233.2"/>
		<path class="st0" d="M303.9,233.2c-0.3,0.3-0.4,0.7-0.4,1.1s0.2,0.9,0.5,1.2c0.3,0.3,0.7,0.4,1.1,0.4s0.9-0.2,1.2-0.5
			c0.3-0.3,0.4-0.7,0.4-1.1s-0.2-0.9-0.5-1.2C305.4,232.5,304.4,232.5,303.9,233.2"/>
		<path class="st0" d="M102.8,227.6c-0.4,0.3-0.6,0.8-0.6,1.2c0,0.4,0.1,0.7,0.3,1c0.3,0.4,0.8,0.6,1.2,0.6c0.3,0,0.7-0.1,1-0.3
			c0.4-0.3,0.6-0.8,0.6-1.2c0-0.3-0.1-0.7-0.4-1C104.4,227.1,103.4,227,102.8,227.6"/>
		<path class="st0" d="M308.6,227.6c-0.2,0.3-0.4,0.7-0.4,1c0,0.5,0.2,0.9,0.6,1.2c0.3,0.2,0.6,0.3,1,0.3c0.5,0,0.9-0.2,1.2-0.6
			c0.2-0.3,0.4-0.7,0.3-1c0-0.5-0.2-0.9-0.6-1.2C310.1,226.9,309.1,227,308.6,227.6"/>
		<path class="st0" d="M98.4,221.7c-0.4,0.3-0.7,0.8-0.7,1.3c0,0.3,0.1,0.6,0.3,0.9c0.3,0.4,0.8,0.7,1.3,0.7c0.3,0,0.6-0.1,0.9-0.3
			c0.4-0.3,0.7-0.8,0.7-1.3c0-0.3-0.1-0.6-0.3-0.9C100,221.3,99.1,221.2,98.4,221.7"/>
		<path class="st0" d="M315.2,221.5c-0.7-0.5-1.7-0.3-2.2,0.4c-0.2,0.3-0.3,0.6-0.3,0.9c0,0.5,0.2,1,0.7,1.3
			c0.3,0.2,0.6,0.3,0.9,0.3c0.5,0,1-0.2,1.3-0.7c0.2-0.3,0.3-0.6,0.3-0.9C315.9,222.3,315.6,221.8,315.2,221.5"/>
		<path class="st0" d="M94.3,215.5c-0.5,0.3-0.7,0.8-0.7,1.3c0,0.3,0.1,0.6,0.2,0.9c0.3,0.5,0.8,0.7,1.3,0.7c0.3,0,0.6-0.1,0.9-0.3
			c0.5-0.3,0.7-0.8,0.7-1.3c0-0.3-0.1-0.6-0.3-0.8C96,215.3,95,215.1,94.3,215.5"/>
		<path class="st0" d="M319.3,215.4c-0.7-0.5-1.7-0.3-2.2,0.5c-0.2,0.3-0.3,0.6-0.3,0.9c0,0.5,0.3,1,0.7,1.3
			c0.3,0.2,0.6,0.2,0.9,0.2c0.5,0,1-0.3,1.3-0.7c0.2-0.3,0.3-0.6,0.3-0.8C320,216.2,319.8,215.7,319.3,215.4"/>
		<path class="st0" d="M76.6,119.5c0.1,0,0.2,0,0.3,0c0.7,0,1.4-0.5,1.5-1.2c0-0.1,0-0.2,0-0.3c0-0.7-0.5-1.4-1.2-1.6
			c-0.9-0.2-1.7,0.4-1.9,1.2c0,0.1,0,0.2,0,0.3C75.4,118.7,75.9,119.4,76.6,119.5"/>
		<path class="st0" d="M334.8,117.7c0,0.1,0,0.2,0,0.3c0.2,0.7,0.8,1.2,1.5,1.2c0.1,0,0.2,0,0.3,0c0.7-0.2,1.2-0.8,1.2-1.6
			c0-0.1,0-0.2,0-0.3c-0.2-0.9-1-1.4-1.9-1.2C335.3,116.3,334.8,117,334.8,117.7"/>
		<path class="st0" d="M78.3,112.3c0.1,0,0.3,0.1,0.4,0.1c0.7,0,1.3-0.5,1.5-1.2c0-0.1,0.1-0.3,0.1-0.4c0-0.7-0.5-1.3-1.2-1.5
			c-0.8-0.2-1.7,0.3-1.9,1.1c0,0.1-0.1,0.3-0.1,0.4C77.1,111.5,77.6,112.1,78.3,112.3"/>
		<path class="st0" d="M333.1,110.5c0,0.1,0,0.3,0.1,0.4c0.2,0.7,0.8,1.2,1.5,1.2c0.1,0,0.3,0,0.4-0.1c0.7-0.2,1.2-0.8,1.2-1.5
			c0-0.1,0-0.3-0.1-0.4c-0.2-0.8-1.1-1.3-1.9-1.1C333.6,109.2,333.1,109.8,333.1,110.5"/>
		<path class="st0" d="M80.3,105.3c0.2,0.1,0.3,0.1,0.5,0.1c0.7,0,1.3-0.4,1.5-1.1c0.1-0.2,0.1-0.3,0.1-0.5c0-0.7-0.4-1.3-1.1-1.5
			c-0.8-0.3-1.7,0.2-2,1c-0.1,0.2-0.1,0.3-0.1,0.5C79.2,104.4,79.7,105,80.3,105.3"/>
		<path class="st0" d="M331.1,104c0.2,0.7,0.8,1.1,1.5,1.1c0.2,0,0.3,0,0.5-0.1c0.7-0.2,1.1-0.8,1.1-1.5c0-0.2,0-0.3-0.1-0.5
			c-0.3-0.8-1.2-1.3-2-1c-0.7,0.2-1.1,0.8-1.1,1.5C331,103.6,331,103.8,331.1,104"/>
		<path class="st0" d="M82.7,98.3c0.2,0.1,0.4,0.1,0.6,0.1c0.6,0,1.2-0.4,1.5-1c0.1-0.2,0.1-0.4,0.1-0.6c0-0.6-0.4-1.2-1-1.5
			c-0.8-0.3-1.7,0.1-2,0.9c-0.1,0.2-0.1,0.4-0.1,0.6C81.7,97.4,82.1,98,82.7,98.3"/>
		<path class="st0" d="M328.6,97.1L328.6,97.1c0.2,0.6,0.8,1,1.5,1c0.2,0,0.4,0,0.6-0.1c0.6-0.2,1-0.8,1-1.5c0-0.2,0-0.4-0.1-0.6
			c-0.3-0.8-1.2-1.2-2-0.9c-0.6,0.3-1,0.8-1,1.5C328.4,96.7,328.5,96.9,328.6,97.1"/>
		<path class="st0" d="M85.6,91.5c0.2,0.1,0.4,0.1,0.7,0.1c0.6,0,1.2-0.3,1.4-0.9c0.1-0.2,0.1-0.4,0.1-0.7c0-0.6-0.3-1.2-0.9-1.4
			c-0.8-0.4-1.7,0-2.1,0.8c-0.1,0.2-0.1,0.4-0.1,0.6C84.6,90.6,85,91.2,85.6,91.5"/>
		<path class="st0" d="M327.1,91.4c0.2,0,0.5,0,0.7-0.1c0.6-0.3,0.9-0.8,0.9-1.4c0-0.2,0-0.4-0.1-0.7c-0.4-0.8-1.3-1.1-2.1-0.8
			c-0.6,0.3-0.9,0.9-0.9,1.4c0,0.2,0.1,0.4,0.1,0.6C325.9,91,326.5,91.4,327.1,91.4"/>
		<path class="st0" d="M88.8,84.8c0.2,0.1,0.5,0.2,0.7,0.2c0.6,0,1.1-0.3,1.4-0.8c0.1-0.2,0.2-0.5,0.2-0.8c0-0.6-0.3-1.1-0.8-1.4
			c-0.8-0.4-1.7-0.1-2.1,0.7c-0.1,0.2-0.2,0.5-0.2,0.8C87.9,84,88.2,84.5,88.8,84.8"/>
		<path class="st0" d="M323.8,84.8c0.3,0,0.5-0.1,0.7-0.2c0.5-0.3,0.8-0.8,0.8-1.4c0-0.3-0.1-0.5-0.2-0.8l0,0
			c-0.4-0.8-1.4-1.1-2.1-0.6c-0.5,0.3-0.8,0.8-0.8,1.4c0,0.3,0.1,0.5,0.2,0.7C322.7,84.5,323.3,84.8,323.8,84.8"/>
		<path class="st0" d="M92.3,78.4c0.3,0.1,0.5,0.2,0.8,0.2c0.5,0,1.1-0.3,1.3-0.8c0.2-0.3,0.2-0.5,0.2-0.8c0-0.5-0.3-1.1-0.8-1.3
			c-0.7-0.5-1.7-0.2-2.2,0.5c-0.2,0.3-0.2,0.5-0.2,0.8C91.6,77.5,91.8,78.1,92.3,78.4"/>
		<path class="st0" d="M320.2,78.4c0.3,0,0.6-0.1,0.8-0.2c0.5-0.3,0.8-0.8,0.8-1.3c0-0.3-0.1-0.6-0.2-0.8c-0.5-0.7-1.4-1-2.2-0.5
			c-0.5,0.3-0.8,0.8-0.8,1.3c0,0.3,0.1,0.6,0.2,0.8C319.2,78.1,319.7,78.4,320.2,78.4"/>
		<path class="st0" d="M96.2,72.1c0.3,0.2,0.6,0.3,0.9,0.3c0.5,0,1-0.2,1.3-0.7c0.2-0.3,0.3-0.6,0.3-0.9c0-0.5-0.2-1-0.7-1.3
			c-0.7-0.5-1.7-0.3-2.2,0.4c-0.2,0.3-0.3,0.6-0.3,0.9C95.5,71.3,95.8,71.8,96.2,72.1"/>
		<path class="st0" d="M316.2,72.2c0.3,0,0.6-0.1,0.9-0.3c0.5-0.3,0.7-0.8,0.7-1.3c0-0.3-0.1-0.6-0.3-0.9c-0.5-0.7-1.5-0.9-2.2-0.4
			c-0.5,0.3-0.7,0.8-0.7,1.3c0,0.3,0.1,0.6,0.3,0.9C315.2,72,315.7,72.2,316.2,72.2"/>
		<path class="st0" d="M100.5,66.1c0.3,0.2,0.6,0.3,1,0.3c0.5,0,0.9-0.2,1.2-0.6c0.2-0.3,0.3-0.6,0.3-0.9c0-0.5-0.2-0.9-0.6-1.3
			c-0.7-0.5-1.7-0.4-2.2,0.3c-0.2,0.3-0.3,0.6-0.3,1C99.9,65.3,100.1,65.8,100.5,66.1"/>
		<path class="st0" d="M311.9,66.2c0.3,0,0.7-0.1,1-0.3c0.4-0.3,0.6-0.8,0.6-1.2c0-0.3-0.1-0.7-0.3-1c-0.5-0.7-1.5-0.8-2.2-0.3
			c-0.4,0.3-0.6,0.8-0.6,1.2c0,0.3,0.1,0.7,0.3,1C311,66,311.4,66.2,311.9,66.2"/>
		<path class="st0" d="M106.1,60.7c0.4,0,0.9-0.2,1.2-0.5s0.4-0.7,0.4-1c0-0.4-0.2-0.9-0.5-1.2c-0.7-0.6-1.7-0.5-2.2,0.2l0,0
			c-0.3,0.3-0.4,0.7-0.4,1c0,0.4,0.2,0.9,0.6,1.2C105.4,60.6,105.7,60.7,106.1,60.7"/>
		<path class="st0" d="M307.2,60.5c0.4,0,0.7-0.1,1-0.4c0.4-0.3,0.5-0.8,0.5-1.2c0-0.4-0.1-0.7-0.4-1c-0.6-0.7-1.6-0.7-2.2-0.2
			c-0.4,0.3-0.5,0.8-0.5,1.2c0,0.4,0.1,0.7,0.4,1C306.4,60.3,306.8,60.5,307.2,60.5"/>
		<path class="st0" d="M111,55.2c0.4,0,0.8-0.2,1.1-0.5s0.4-0.7,0.4-1.1s-0.2-0.8-0.5-1.1c-0.6-0.6-1.6-0.6-2.2,0.1
			c-0.3,0.3-0.4,0.7-0.4,1.1s0.2,0.8,0.5,1.1C110.2,55.1,110.6,55.2,111,55.2"/>
		<path class="st0" d="M302.3,55.1c0.4,0,0.8-0.1,1.1-0.4c0.3-0.3,0.5-0.7,0.5-1.1s-0.1-0.8-0.4-1.1c-0.6-0.6-1.6-0.6-2.2,0
			c-0.3,0.3-0.5,0.7-0.5,1.1s0.1,0.8,0.4,1.1C301.4,54.9,301.9,55.1,302.3,55.1"/>
		<path class="st0" d="M116.3,50c0.4,0,0.8-0.1,1.1-0.4s0.5-0.7,0.5-1.1s-0.1-0.8-0.4-1.1c-0.6-0.6-1.6-0.7-2.2-0.1
			c-0.3,0.3-0.5,0.7-0.5,1.1s0.1,0.8,0.4,1.1C115.4,49.9,115.9,50,116.3,50"/>
		<path class="st0" d="M297,49.9c0.4,0,0.8-0.2,1.2-0.5c0.3-0.3,0.4-0.7,0.4-1.1s-0.2-0.8-0.5-1.1c-0.6-0.6-1.6-0.6-2.2,0.1
			c-0.3,0.3-0.4,0.7-0.4,1.1s0.2,0.9,0.5,1.2C296.3,49.8,296.6,49.9,297,49.9"/>
		<path class="st0" d="M121.8,45.2c0.4,0,0.7-0.1,1-0.4c0.4-0.3,0.6-0.8,0.6-1.2c0-0.4-0.1-0.7-0.4-1c-0.6-0.7-1.6-0.8-2.2-0.2l0,0
			c-0.4,0.3-0.6,0.8-0.6,1.2c0,0.4,0.1,0.7,0.4,1C120.9,45,121.3,45.2,121.8,45.2"/>
		<path class="st0" d="M291.5,45c0.5,0,0.9-0.2,1.2-0.6c0.2-0.3,0.4-0.7,0.4-1c0-0.5-0.2-0.9-0.6-1.2c-0.7-0.6-1.7-0.5-2.2,0.2
			c-0.2,0.3-0.4,0.6-0.4,1c0,0.5,0.2,0.9,0.6,1.2C290.8,44.9,291.1,45,291.5,45"/>
		<path class="st0" d="M127.6,40.6c0.3,0,0.7-0.1,0.9-0.3c0.4-0.3,0.6-0.8,0.6-1.3c0-0.3-0.1-0.7-0.3-0.9c-0.5-0.7-1.5-0.8-2.2-0.3
			c-0.4,0.3-0.6,0.8-0.6,1.3c0,0.3,0.1,0.7,0.3,0.9C126.6,40.4,127.1,40.6,127.6,40.6"/>
		<path class="st0" d="M284.8,40.2c0.3,0.2,0.6,0.3,0.9,0.3c0.5,0,1-0.2,1.3-0.6c0.2-0.3,0.3-0.6,0.3-0.9c0-0.5-0.2-1-0.6-1.3
			c-0.7-0.5-1.7-0.4-2.2,0.3c-0.2,0.3-0.3,0.6-0.3,0.9C284.1,39.4,284.4,39.8,284.8,40.2"/>
		<path class="st0" d="M133.6,36.4c0.3,0,0.6-0.1,0.9-0.3c0.5-0.3,0.7-0.8,0.7-1.3c0-0.3-0.1-0.6-0.3-0.9c-0.5-0.7-1.5-0.9-2.2-0.4
			c-0.5,0.3-0.7,0.8-0.7,1.3c0,0.3,0.1,0.6,0.3,0.9C132.6,36.1,133.1,36.4,133.6,36.4"/>
		<path class="st0" d="M278.8,36c0.3,0.2,0.6,0.3,0.9,0.3c0.5,0,1-0.2,1.3-0.7c0.2-0.3,0.3-0.6,0.3-0.9c0-0.5-0.3-1-0.7-1.3
			c-0.7-0.5-1.7-0.3-2.2,0.4c-0.2,0.3-0.3,0.6-0.3,0.9C278.1,35.2,278.3,35.7,278.8,36"/>
		<path class="st0" d="M139.8,32.5c0.3,0,0.5-0.1,0.8-0.2c0.5-0.3,0.8-0.8,0.8-1.4c0-0.3-0.1-0.5-0.2-0.8c-0.4-0.7-1.4-1-2.2-0.6
			c-0.5,0.3-0.8,0.8-0.8,1.4c0,0.3,0.1,0.5,0.2,0.8C138.8,32.2,139.3,32.5,139.8,32.5"/>
		<path class="st0" d="M272.6,32.1c0.3,0.1,0.5,0.2,0.8,0.2c0.5,0,1.1-0.3,1.4-0.8c0.1-0.3,0.2-0.5,0.2-0.8c0-0.5-0.3-1.1-0.8-1.4
			c-0.8-0.4-1.7-0.2-2.2,0.6c-0.1,0.3-0.2,0.5-0.2,0.8C271.8,31.3,272.1,31.8,272.6,32.1"/>
		<path class="st0" d="M146.3,28.9c0.2,0,0.5-0.1,0.7-0.2c0.5-0.3,0.9-0.8,0.9-1.4c0-0.2-0.1-0.5-0.2-0.7c-0.4-0.8-1.3-1.1-2.1-0.7
			c-0.5,0.3-0.9,0.8-0.9,1.4c0,0.2,0.1,0.5,0.2,0.7C145.2,28.6,145.7,28.9,146.3,28.9"/>
		<path class="st0" d="M266.2,28.6c0.2,0.1,0.5,0.2,0.7,0.2c0.6,0,1.1-0.3,1.4-0.9c0.1-0.2,0.2-0.5,0.2-0.7c0-0.6-0.3-1.1-0.9-1.4
			c-0.8-0.4-1.7-0.1-2.1,0.7c-0.1,0.2-0.2,0.5-0.2,0.7C265.4,27.8,265.7,28.3,266.2,28.6"/>
		<path class="st0" d="M152.9,25.7c0.2,0,0.4-0.1,0.6-0.1c0.6-0.3,0.9-0.8,0.9-1.4c0-0.2,0-0.4-0.1-0.7c-0.4-0.8-1.3-1.1-2.1-0.8
			c-0.6,0.3-0.9,0.8-0.9,1.4c0,0.2,0,0.4,0.1,0.7C151.7,25.4,152.3,25.7,152.9,25.7"/>
		<path class="st0" d="M259.6,25.5c0.2,0.1,0.4,0.1,0.6,0.1c0.6,0,1.2-0.3,1.4-0.9c0.1-0.2,0.1-0.4,0.1-0.7c0-0.6-0.4-1.2-0.9-1.4
			c-0.8-0.3-1.7,0-2.1,0.8c-0.1,0.2-0.1,0.4-0.1,0.6C258.7,24.7,259.1,25.2,259.6,25.5"/>
		<path class="st0" d="M159.7,22.9c0.2,0,0.4,0,0.6-0.1c0.6-0.2,1-0.8,1-1.5c0-0.2,0-0.4-0.1-0.6c-0.3-0.8-1.2-1.2-2-0.9
			c-0.6,0.2-1,0.8-1,1.5c0,0.2,0,0.4,0.1,0.6C158.5,22.5,159.1,22.9,159.7,22.9"/>
		<path class="st0" d="M252.9,22.7c0.2,0.1,0.4,0.1,0.6,0.1c0.6,0,1.2-0.4,1.5-1c0.1-0.2,0.1-0.4,0.1-0.5c0-0.6-0.4-1.2-1-1.5
			c-0.8-0.3-1.7,0.1-2,0.9c-0.1,0.2-0.1,0.4-0.1,0.5C251.9,21.9,252.3,22.5,252.9,22.7"/>
		<path class="st0" d="M166.7,20.5c0.2,0,0.3,0,0.5-0.1c0.7-0.2,1.1-0.8,1.1-1.5c0-0.2,0-0.3-0.1-0.5c-0.3-0.8-1.1-1.3-2-1
			c-0.7,0.2-1.1,0.8-1.1,1.5c0,0.2,0,0.3,0.1,0.5C165.4,20.1,166,20.5,166.7,20.5"/>
		<path class="st0" d="M246,20.3c0.2,0,0.3,0.1,0.5,0.1c0.7,0,1.3-0.4,1.5-1.1c0.1-0.2,0.1-0.3,0.1-0.5c0-0.7-0.4-1.3-1.1-1.5
			c-0.8-0.3-1.7,0.2-2,1c-0.1,0.2-0.1,0.3-0.1,0.5C244.9,19.5,245.3,20.1,246,20.3"/>
		<path class="st0" d="M173.8,18.5c0.1,0,0.3,0,0.4-0.1c0.7-0.2,1.2-0.8,1.2-1.5c0-0.1,0-0.3-0.1-0.4c-0.2-0.9-1.1-1.4-1.9-1.1
			c-0.7,0.2-1.2,0.8-1.2,1.5c0,0.1,0,0.3,0.1,0.4C172.4,18,173.1,18.5,173.8,18.5"/>
		<path class="st0" d="M239,18.3c0.1,0,0.3,0.1,0.4,0.1c0.7,0,1.3-0.5,1.5-1.2c0-0.1,0-0.3,0-0.4c0-0.7-0.5-1.3-1.2-1.5
			c-0.8-0.2-1.7,0.3-1.9,1.1c0,0.1-0.1,0.3-0.1,0.4C237.8,17.5,238.3,18.2,239,18.3"/>
		<path class="st0" d="M180.9,16.8c0.1,0,0.2,0,0.3,0c0.7-0.1,1.3-0.8,1.3-1.5c0-0.1,0-0.2,0-0.3c-0.2-0.9-1-1.4-1.9-1.2
			c-0.7,0.1-1.3,0.8-1.3,1.5c0,0.1,0,0.2,0,0.3C179.5,16.3,180.2,16.8,180.9,16.8"/>
		<path class="st0" d="M231.9,16.7c0.1,0,0.2,0,0.3,0c0.7,0,1.4-0.5,1.5-1.3c0-0.1,0-0.2,0-0.3c0-0.7-0.5-1.4-1.3-1.5l0,0
			c-0.9-0.2-1.7,0.4-1.8,1.2c0,0.1,0,0.2,0,0.3C230.6,15.9,231.2,16.6,231.9,16.7"/>
		<path class="st0" d="M188.2,15.6c0.1,0,0.1,0,0.2,0c0.8-0.1,1.3-0.8,1.4-1.5c0-0.1,0-0.2,0-0.2c-0.1-0.9-0.9-1.5-1.8-1.3
			c-0.8,0.1-1.4,0.8-1.4,1.6c0,0.1,0,0.1,0,0.2C186.8,15,187.4,15.6,188.2,15.6"/>
		<path class="st0" d="M224.7,15.5L224.7,15.5c0.1,0,0.1,0,0.2,0c0.8,0,1.5-0.6,1.6-1.4c0-0.1,0-0.1,0-0.2c0-0.8-0.6-1.5-1.4-1.6
			c-0.9-0.1-1.7,0.5-1.8,1.3c0,0.1,0,0.1,0,0.2C223.3,14.8,223.9,15.4,224.7,15.5"/>
		<path class="st0" d="M195.5,14.8h0.1c0.8-0.1,1.4-0.8,1.4-1.6v-0.1c-0.1-0.9-0.8-1.5-1.7-1.4c-0.8,0.1-1.4,0.8-1.4,1.6v0.1
			C194,14.2,194.7,14.8,195.5,14.8"/>
		<path class="st0" d="M217.5,14.8h0.1c0.8,0,1.5-0.6,1.6-1.5v-0.1c0-0.8-0.6-1.5-1.4-1.6c-0.9-0.1-1.6,0.6-1.7,1.4v0.1
			C216,14,216.7,14.7,217.5,14.8"/>
		<path class="st0" d="M202.9,14.4L202.9,14.4c0.9,0,1.6-0.7,1.6-1.6l0,0c0-0.9-0.7-1.6-1.6-1.5c-0.9,0-1.5,0.7-1.5,1.6l0,0
			C201.3,13.7,202,14.4,202.9,14.4"/>
		<path class="st0" d="M210.2,14.4L210.2,14.4c0.9,0,1.6-0.7,1.6-1.5l0,0c0-0.9-0.7-1.6-1.5-1.6c-0.9,0-1.6,0.7-1.6,1.5l0,0
			C208.7,13.6,209.4,14.3,210.2,14.4"/>
		<path class="st0" d="M108.3,100.8c0.2,0.1,0.4,0.3,0.6,0.5c0.2,0.2,0.4,0.6,0.5,1v8.8l-7.1-10.7H98c0.3,0,0.5,0.1,0.8,0.3
			c0.2,0.1,0.4,0.3,0.6,0.6c0.2,0.3,0.4,0.6,0.4,1v5.3c0,0.3-0.1,0.6-0.3,0.8c-0.1,0.2-0.3,0.4-0.4,0.5c-0.2,0.1-0.4,0.2-0.6,0.3
			c0.1,0,0.3,0.1,0.4,0.2c0.1,0.1,0.2,0.2,0.4,0.3c0.1,0.1,0.2,0.3,0.3,0.5l0.1-1.3v7.1c-0.1,0.4-0.2,0.8-0.4,1
			c-0.2,0.3-0.4,0.4-0.6,0.6c-0.3,0.2-0.5,0.3-0.8,0.3h6.9c-0.3,0-0.5-0.1-0.8-0.3c-0.2-0.1-0.4-0.3-0.6-0.6c-0.2-0.3-0.4-0.6-0.4-1
			v-8.8l7.1,10.7h4.3c-0.3,0-0.5-0.1-0.8-0.3c-0.2-0.1-0.4-0.3-0.6-0.6s-0.4-0.6-0.4-1v-5.3c0-0.3,0.1-0.6,0.3-0.8
			c0.1-0.2,0.3-0.4,0.4-0.5c0.2-0.1,0.4-0.2,0.6-0.3c-0.1,0-0.3-0.1-0.4-0.2c-0.1-0.1-0.2-0.2-0.4-0.3s-0.2-0.3-0.3-0.5l-0.1,1.3
			v-7.1c0.1-0.4,0.2-0.8,0.4-1c0.2-0.3,0.4-0.4,0.6-0.6c0.3-0.1,0.5-0.2,0.8-0.3h-6.9C107.8,100.6,108.1,100.7,108.3,100.8"/>
		<path class="st0" d="M120.1,100.6c0.1-0.1,0.2-0.1,0.2-0.1h-5.9c0,0,0.1,0,0.2,0.1c0.1,0,0.2,0.1,0.4,0.2s0.3,0.3,0.5,0.5
			s0.4,0.5,0.6,0.8l3.5,6.1l0,0l0.8,1.2L120,109l-0.3-0.4v0.1c0,0.3-0.2,0.4-0.6,0.4c0.2,0,0.5,0.1,0.6,0.3c0.2,0.1,0.3,0.3,0.4,0.6
			c0.1,0.3,0.2,0.6,0.2,1v4.9c-0.1,0.4-0.2,0.8-0.4,1c-0.2,0.3-0.4,0.4-0.6,0.6c-0.3,0.2-0.5,0.2-0.8,0.3h6.9
			c-0.3,0-0.5-0.1-0.8-0.3c-0.2-0.1-0.4-0.3-0.6-0.6c-0.2-0.3-0.4-0.6-0.4-1l0,0v-5.1c0-0.4,0.1-0.7,0.2-0.9
			c0.1-0.2,0.3-0.4,0.4-0.5c0.2-0.1,0.4-0.3,0.6-0.3c-0.4,0-0.6-0.1-0.6-0.4v-0.1l-0.3,0.3l-0.4,0.4l0.8-1.3l3.5-6.1
			c0.2-0.3,0.4-0.6,0.6-0.8c0.2-0.2,0.4-0.4,0.5-0.5c0.2-0.1,0.3-0.2,0.4-0.2c0.1,0,0.2-0.1,0.2-0.1h-5.9c0,0,0.1,0.1,0.2,0.1
			c0.1,0.1,0.2,0.2,0.3,0.3c0.1,0.1,0.1,0.3,0.1,0.6c0,0.2-0.1,0.5-0.3,0.9l-2.2,3.7l-2.2-3.8c-0.2-0.4-0.3-0.7-0.3-0.9
			c0-0.2,0-0.4,0.1-0.6C119.9,100.8,120,100.7,120.1,100.6"/>
		<path class="st0" d="M291.1,109.2c-0.1,0-0.3-0.1-0.4-0.2s-0.2-0.2-0.4-0.3c-0.1-0.1-0.2-0.3-0.3-0.5l-0.1,1.3v-7.1
			c0.1-0.4,0.2-0.7,0.4-0.9c0.2-0.2,0.4-0.4,0.6-0.6c0.2-0.1,0.4-0.2,0.5-0.3c0.2-0.1,0.3-0.1,0.4-0.1H285c0.1,0,0.2,0,0.3,0.1
			c0.2,0.1,0.4,0.1,0.5,0.3c0.2,0.1,0.4,0.3,0.6,0.6c0.2,0.2,0.3,0.6,0.4,0.9v5.3c0,0.3-0.1,0.6-0.3,0.8c-0.1,0.2-0.3,0.4-0.4,0.5
			c-0.2,0.1-0.4,0.2-0.6,0.3c0.2,0,0.3,0.1,0.4,0.2s0.2,0.2,0.4,0.3c0.1,0.1,0.2,0.3,0.3,0.5l0.1-1.3v3.8c0,0.6-0.2,1-0.6,1.4
			s-0.9,0.6-1.4,0.6h-1.8c-0.6,0-1-0.2-1.4-0.6s-0.6-0.9-0.6-1.4V109l0.1,1.3c0.1-0.2,0.2-0.4,0.3-0.5c0.1-0.1,0.3-0.2,0.4-0.3
			c0.2-0.1,0.3-0.2,0.4-0.2c-0.2,0-0.4-0.1-0.6-0.3c-0.2-0.1-0.3-0.3-0.5-0.5c-0.1-0.2-0.2-0.5-0.3-0.8v-5.3c0.1-0.4,0.2-0.8,0.4-1
			c0.2-0.3,0.4-0.4,0.6-0.6c0.3-0.1,0.5-0.2,0.8-0.3h-6.9c0.3,0,0.5,0.1,0.8,0.3c0.2,0.1,0.4,0.3,0.6,0.6c0.2,0.3,0.4,0.6,0.4,1v5.3
			c0,0.3-0.1,0.6-0.3,0.8c-0.1,0.2-0.3,0.4-0.4,0.5c-0.2,0.1-0.4,0.2-0.6,0.3c0.1,0,0.3,0.1,0.4,0.2s0.2,0.2,0.4,0.3
			c0.1,0.1,0.2,0.3,0.3,0.5l0.1-1.3v3.8c0,0.7,0.1,1.4,0.4,2s0.6,1.2,1.1,1.6c0.5,0.5,1,0.8,1.6,1.1c0.6,0.3,1.3,0.4,2,0.4h1.8
			c0.7,0,1.4-0.1,2-0.4s1.2-0.6,1.6-1.1c0.5-0.5,0.8-1,1.1-1.6c0.3-0.6,0.4-1.3,0.4-2v-1.9c0-0.3,0.1-0.6,0.3-0.8
			c0.1-0.2,0.3-0.4,0.5-0.5C290.7,109.4,290.9,109.3,291.1,109.2"/>
		<path class="st0" d="M303.1,113.1v-0.4l0,0c0-0.4,0-0.7-0.1-1.1c-0.1-0.3-0.2-0.6-0.4-0.9l0,0l0,0v-0.1c0,0,0,0,0-0.1l0,0l0,0
			c0,0,0,0,0-0.1s-0.1-0.1-0.1-0.2l-0.1-0.1c0,0,0-0.1-0.1-0.1l-0.1-0.1c-0.1-0.1-0.1-0.1-0.2-0.2s-0.1-0.1-0.2-0.2
			s-0.1-0.1-0.2-0.1c0.1,0.1,0.2,0.2,0.3,0.3c0.1,0.1,0.2,0.2,0.3,0.2c0-0.1,0-0.2,0-0.2v-0.1c0-0.1,0.1-0.1,0.2-0.2
			s0.1-0.1,0.3-0.1c-0.2,0-0.5,0-0.7-0.1c-0.2,0-0.4-0.1-0.7-0.2c-0.3-0.1-0.5-0.2-0.8-0.3c-0.5-0.3-0.9-0.5-1.4-0.6
			c-0.4-0.2-0.8-0.3-1.1-0.3c-0.6-0.2-1.1-0.4-1.5-0.5c-0.4-0.2-0.7-0.3-0.9-0.5l0,0c-0.2-0.1-0.3-0.3-0.4-0.4
			c-0.1-0.2-0.2-0.4-0.2-0.6l0,0l0,0c0-0.1,0-0.2,0.1-0.4c0-0.1,0.1-0.2,0.1-0.3V105c0,0,0-0.1,0.1-0.1l0,0c0.2-0.3,0.5-0.5,0.8-0.7
			c0.4-0.2,0.7-0.3,1.2-0.3s1,0.1,1.4,0.3c0.4,0.2,0.8,0.5,1.1,0.8c0.1,0.1,0.2,0.2,0.2,0.3v-0.1l0,0c0-0.1,0-0.3,0-0.4v-0.1
			c0-0.1,0-0.3-0.1-0.3c0.1,0.2,0.1,0.3,0.1,0.5s0,0.3,0.1,0.5v0.1c0,0.2,0,0.3-0.1,0.5c0,0.1-0.1,0.2-0.1,0.3c0,0.1,0,0.1,0,0.2
			l0,0l0,0c-0.1,0.2-0.2,0.3-0.4,0.5s-0.4,0.2-0.6,0.2c0.2,0,0.3-0.1,0.5-0.1s0.4-0.1,0.6-0.2l0,0l0,0l0,0c0.1-0.1,0.2-0.1,0.3-0.2
			c0.1-0.1,0.2-0.1,0.3-0.2c0.3-0.2,0.6-0.4,0.8-0.7c0.2-0.2,0.3-0.5,0.5-0.7l1.2-0.9l0.8-0.5c0,0-0.1,0-0.2,0.1
			c-0.1,0-0.2,0.1-0.3,0.1h-0.1c-0.1,0-0.2,0-0.3,0c-0.1,0-0.2-0.1-0.3-0.1c-0.1,0-0.1-0.1-0.2-0.2s-0.1-0.1-0.2-0.2
			c-0.6-0.8-1.4-1.4-2.3-1.9s-1.9-0.7-3-0.7h-0.1c-0.7,0-1.4,0.1-2.1,0.4c-0.6,0.3-1.2,0.6-1.7,1s-0.9,0.9-1.1,1.5
			c-0.3,0.6-0.4,1.2-0.4,1.9v0.3c0,0.4,0.1,0.8,0.2,1.2c0.1,0.4,0.3,0.7,0.4,1l0,0l0.1,0.2l0,0v0.1c0,0,0,0,0,0.1l0,0l0,0
			c0.1,0.1,0.2,0.2,0.3,0.3c0.1,0.1,0.2,0.2,0.2,0.3c0.1,0.1,0.2,0.1,0.2,0.2c-0.2-0.2-0.4-0.3-0.6-0.4c0,0.1,0,0.1,0,0.2
			s0,0.1,0,0.1c0,0.1-0.1,0.2-0.1,0.2c-0.1,0.1-0.2,0.1-0.3,0.1c0.2,0,0.4,0,0.7,0.1c0.2,0,0.5,0.1,0.7,0.2c0.3,0.1,0.6,0.2,0.9,0.4
			l0,0c0.4,0.2,0.9,0.4,1.3,0.5s0.8,0.2,1.1,0.3c1,0.3,1.8,0.7,2.4,1l0,0h0.1c0,0,0,0,0.1,0c0.1,0.1,0.1,0.1,0.2,0.2
			s0.2,0.2,0.2,0.4c0.1,0.1,0.1,0.3,0.1,0.5v0.1c0,0.2,0,0.3-0.1,0.6c-0.1,0.3-0.4,0.6-0.7,0.8l0,0c0,0,0,0-0.1,0c0,0,0,0-0.1,0
			h-0.1c-0.1,0-0.1,0.1-0.2,0.1s-0.1,0-0.2,0.1c-0.2,0.1-0.5,0.1-0.8,0.1c-0.1,0-0.2,0-0.4,0c-0.3,0-0.6,0-0.8-0.1
			c-0.3-0.1-0.5-0.1-0.6-0.2c-0.3-0.1-0.7-0.3-0.9-0.5c-0.3-0.2-0.5-0.4-0.7-0.7c-0.1-0.1-0.1-0.2-0.1-0.3c0,0,0,0,0-0.1
			s0-0.1,0-0.2s0.1-0.2,0.1-0.2l0,0l-0.4,0.2l-2.7,1.3l-0.7,0.3l1,0.3l0,0l0.9,0.3l-0.8-0.1c0.3,0.4,0.6,0.8,1,1.2
			c0.4,0.4,0.8,0.7,1.3,1s1,0.5,1.6,0.6c0.5,0.2,1.1,0.2,1.7,0.2h0.7c0.7,0,1.4-0.1,2.1-0.4s1.2-0.6,1.7-1s0.9-1,1.2-1.5
			C302.9,114.4,303.1,113.8,303.1,113.1"/>
		<path class="st0" d="M311.1,108.4l1.4,3.2h-2.8L311.1,108.4z M303.2,117.6c-0.2,0.1-0.3,0.2-0.5,0.3c-0.1,0-0.2,0.1-0.3,0.1h7
			c-0.1,0-0.2-0.1-0.4-0.1c-0.2-0.1-0.4-0.2-0.6-0.3c-0.2-0.1-0.4-0.3-0.5-0.5c-0.1-0.1-0.1-0.3-0.1-0.4s0-0.3,0.1-0.4l0.6-1.4h5.5
			l0.6,1.3c0.1,0.2,0.1,0.3,0.1,0.5c0,0.1,0,0.3-0.1,0.4c-0.1,0.2-0.3,0.4-0.5,0.6c-0.2,0.1-0.4,0.3-0.6,0.3
			c-0.2,0.1-0.4,0.1-0.4,0.1h7c-0.2,0-0.4-0.1-0.7-0.3c-0.2-0.1-0.4-0.3-0.6-0.5s-0.4-0.6-0.6-1l-2.4-5.4l-0.3-0.6l-0.3-0.6l0.3,0.4
			c0-0.1,0.1-0.2,0.1-0.3c0.1-0.1,0.1-0.2,0.2-0.2c0.1-0.1,0.2-0.1,0.2-0.2c-0.2,0-0.3-0.1-0.5-0.1c-0.1,0-0.2-0.1-0.4-0.2
			c-0.1-0.1-0.3-0.2-0.3-0.3l-3.5-8.1l-3.3,7.7l-0.1,0.3l-0.2,0.4l-0.2,0.5l0.1-0.6c-0.1,0.1-0.2,0.2-0.3,0.2
			c-0.1,0.1-0.2,0.1-0.3,0.1c-0.1,0-0.2,0.1-0.3,0.1c0.1,0.1,0.2,0.2,0.3,0.2c0.1,0.1,0.1,0.2,0.2,0.3c0,0.1,0,0.2,0,0.2v0.1l-2.6,6
			c-0.2,0.4-0.4,0.7-0.6,0.9C303.6,117.3,303.4,117.5,303.2,117.6"/>
		<path class="st0" d="M183.2,77.5c2.7,0,5.4,0,8.2,0.1c2.3,0,4.5,0,6.8,0c3,0,6.1,0,9.1,0c1.3,0,2.5,0,3.8,0c0.1,0,0.2,0,0.3,0
			c0,0.3,0.1,0.4,0.4,0.5c0.4,0.1,0.6,0.5,0.8,0.8c0.1,0.3,0.3,0.3,0.6,0.3c0.2,0,0.4,0,0.6,0c0.4,0,0.6,0.2,0.7,0.6
			c0,0.1,0,0.3,0.1,0.4c0,0.3,0.2,0.5,0.4,0.7c0.2,0.1,0.3,0.4,0.4,0.6c0.1,0.4,0,0.7,0,1.1c0,0.5,0.2,0.9,0.6,1.2
			c0.4,0.3,0.8,0.5,1.2,0.7c0,0,0.1,0,0.2,0c0.4-0.1,0.6,0.1,0.7,0.5c0.1,0.1,0.1,0.3,0.2,0.4c0.2,0.3,0.4,0.2,0.7,0.1
			c0,0,0,0,0.1,0c0.3,0.7,0.9,1.1,1.5,1.5c2.4,1.3,4.7,2.7,7.1,4c0.5,0.3,0.5,0.3,0.4,0.9c-0.1,0.5-0.3,0.9-0.5,1.4
			c-0.5,0.9-0.9,1.8-0.8,2.8c-0.6-0.3-1,0.1-1.6,0c0,0.9-0.8,1.5-0.7,2.4c0.5-0.1,1-0.2,1.4-0.5s0.7-0.7,0.9-1.3
			c0.2,0.4,0.5,0.5,0.8,0.5c0.5,0,0.5,0,0.5,0.5c0.5,0,1-0.3,1.4-0.5c0.1-0.1,0.3-0.1,0.5-0.1c0.8,0.2,1.6,0,2.4-0.3
			c1.2-0.5,2.4-0.7,3.7-0.6c1,0.1,1.9-0.2,2.7-0.6c2.2-1,4.5-2,6.7-3c1.2-0.5,2.4-1.2,3.4-2c0.2-0.2,0.4-0.4,0.6-0.6v0.1
			c-0.8-0.1-1.5,0.3-2,0.9c-0.3,0.3-0.5,0.4-0.9,0.2c0.2-0.1,0.3-0.2,0.4-0.3c0.3-0.2,0.4-0.4,0.1-0.7c-0.2-0.2-0.3-0.4-0.5-0.4
			s-0.4,0.1-0.4,0.2c-0.1,0.1,0,0.3,0.1,0.5c0,0.1,0.1,0.1,0.2,0.2c-0.6,0-1.2,0.1-1.8-0.3c0.3-0.3,0.9-0.4,0.7-1
			c-0.6,0-1.2,0.1-1.7,0.5c-0.4,0.3-0.7,0.6-1.1,0.9c-0.1,0.1-0.3,0.2-0.4,0.4c-0.5,0.5-1.1,0.8-1.8,0.9c-1.2,0.1-2.4,0.3-3.6,0.4
			c-0.3,0-0.6,0-0.8,0c-0.3,0-0.5,0.1-0.6,0.4c-0.2,0.5-0.3,0.6-0.8,0.5s-1.1-0.2-1.6-0.4c-0.4-0.1-0.8-0.1-1.2,0.2
			c-0.3,0.2-0.6,0.3-0.9,0.4c-0.6,0.2-1.2,0.4-1.7,0.9c0.2-0.7,0.6-1.2,1-1.7c0.3-0.3,0.3-0.5,0.1-0.7c-0.1-0.2-0.3-0.4-0.4-0.6
			c-0.1-0.1-0.2-0.2-0.3-0.3c0.9-0.6,1.7-1.1,2.6-1.7c-0.2-0.3-0.4-0.6-0.6-0.9s-0.3-0.6-0.2-0.9c0-1.3,0.1-2.7,0.1-4
			c0-1.6,0.1-3.2,0.1-4.9c0-0.2,0-0.5-0.1-0.6c-0.3-0.6-0.3-1.1-0.1-1.7c0.4-1.4,0.7-2.9,1.2-4.3c0.6-2.1,1-4.3,0.9-6.6
			c-0.1-2.8-0.1-5.6-0.2-8.4c0-0.8-0.1-1.5-0.5-2.1c-0.1-0.1-0.2-0.2-0.3-0.3c-0.3-0.3-0.8-0.2-0.9,0.2c0,0.1-0.1,0.2-0.1,0.3h-0.1
			c0-0.2,0-0.5,0.1-0.7c0.1-0.4,0.3-0.8,0.5-1.2c0.2-0.4,0.2-0.6-0.2-0.9c-0.2-0.1-0.3-0.3-0.4-0.5c0.2,0,0.3,0,0.5,0
			c0-0.3-0.1-0.6-0.1-1c0-0.1-0.1-0.1-0.2-0.1c-0.2,0-0.3-0.2-0.3-0.4c0-0.2,0-0.3,0-0.5c0-0.1,0-0.2,0-0.3
			c-0.3-0.2-0.2-0.5-0.2-0.8c0-0.4,0.1-0.9,0.2-1.3c0.1-0.3,0.3-0.6,0.5-0.9c0.4-0.5,0.6-1.1,0.4-1.8c0-0.1,0-0.3,0-0.3
			c0.5-0.9,0.5-1.7-0.2-2.4c-0.7-0.8-0.7-1.7-0.3-2.7c0.1-0.2,0.2-0.4,0.2-0.6c0-0.2,0-0.4-0.1-0.5c-0.4-0.5-0.4-1.1-0.3-1.7
			c0.1-0.5,0.2-1,0.3-1.5c0-0.4-0.1-0.8-0.1-1.2h-0.6c-0.6,0-1.1,0.1-1.7,0.1c-1.3,0-2.6,0.1-3.8,0.3c-0.2,0-0.4,0.1-0.6,0.2
			c-0.5,0.3-1.1,0.3-1.7,0.3c-2.3,0.1-4.5,0.2-6.8,0.3c-0.9,0-1.6,0.3-2.4,0.8c-0.4,0.3-0.9,0.6-1.4,0.8c-1,0.5-1.9,1.1-2.6,2
			c-1.1,1.2-2.3,2.5-3.4,3.7c-0.4,0.5-0.7,1.1-1.1,1.7c-0.1,0.2-0.3,0.5-0.4,0.6c-0.4,0.5-0.9,0.7-1.5,0.7c-0.7,0-1,0.2-1.2,0.8
			c0,0.1-0.1,0.3-0.1,0.4c-0.1,0.4-0.4,0.5-0.8,0.5c-0.6-0.1-0.7-0.1-0.9,0.5c-0.1,0.3-0.2,0.5-0.3,0.8c-0.1,0.3-0.1,0.5,0.2,0.7
			c0.5,0.3,0.8,0.7,0.9,1.3c0,0.1,0.2,0.3,0.3,0.3c0.2,0.1,0.4,0,0.6,0.1c0.3,0,0.4,0.2,0.5,0.5c0,0.3-0.2,0.4-0.4,0.4
			c-0.3,0-0.6,0.1-0.9,0.1c-0.1,0-0.3,0.1-0.3,0.1c0.2,0.5,0.5,1,0.6,1.6c0.3,1,0.2,2,0.1,3c0,0.3-0.2,0.3-0.4,0.3
			c-0.3,0-0.5-0.1-0.8-0.2c-0.3,0-0.5,0-0.7,0.2s-0.5,0.3-0.8,0.5c-0.5,0.2-1,0.5-1.2,0.9c-0.9,1.5-2.2,1.9-3.8,1.9
			c-1.1,0-2.3,0-3.4,0c-0.6,0-1.2,0.1-1.8,0.4c-0.5,0.3-0.7,0.3-1.1-0.2c-0.7-0.9-1.7-1.2-2.8-1.3c-2.5-0.4-5-0.5-7.4-0.2
			c-1.8,0.2-3.6,0.5-5.3,1.1c-0.1,0-0.1,0.1-0.2,0.1c0.1,0.9,0.2,1.8-0.1,2.8c0.2,0,0.3,0,0.4,0.1c0.1,0,0.3,0.1,0.3,0.2
			s-0.1,0.2-0.1,0.3c-0.1,0.1-0.2,0.2-0.2,0.3c0.2,0.2,0.5,0.3,0.7,0.4c0.3,0.2,0.5,0.4,0.4,0.8c0,0.1,0.1,0.2,0.1,0.3
			c0.6,0.9,0.4,2-0.6,2.5c-0.8,0.4-1.3,0.9-1.5,1.7c0,0.1-0.1,0.2-0.1,0.3c-0.1,0.3-0.3,0.5-0.7,0.6c-1.3,0.4-2.4,1.2-3.4,2
			c-0.6,0.5-1.3,0.9-2,1.4v3.4c2.8,0.1,5.7,0.2,8.5,0.3C176.8,77.4,180,77.5,183.2,77.5"/>
		<path class="st0" d="M231.1,253.1c-2.8,0-7.4-1.3-7.4-10.6c0-11,4.5-12.4,7.4-12.4s6.3,2.9,6.9,11.2
			C238.6,250.6,233.9,253.1,231.1,253.1 M231.1,228c-1.2,0-13.3-1.4-13.3,13.5c0,14,10.9,13.2,13.3,13.2c4.9,0,13.1-1.1,13.1-13.2
			C244.2,228,232.2,227.9,231.1,228"/>
		<path class="st0" d="M178.6,241.5V231h2.2c2,0,4.9,0.5,4.9,5.1S178.6,241.5,178.6,241.5 M185.3,228.2h-14.9v2h3.4v22.2h-3.4v2.2
			H182v-2.1h-3.4v-8.3c0,0,8.2-0.4,10.5-2.9c1.2-1.4,2.2-2.9,2.2-6C191.2,230.9,189.2,228.2,185.3,228.2"/>
		<path class="st0" d="M201,240.7v-10.3h2.4c0.9,0,4,0.4,4,5.1C207.4,240.7,201,240.7,201,240.7 M215.2,251.7l-6.5-9.2
			c0,0,5.1-1.7,5.1-7.7c0-5.2-5.7-6.6-5.7-6.6h-15.4v2.2h2.9v22h-3v2.2h10.9v-2h-2.7v-9.1h2.3l6.5,11.1h8.7v-1.9h-1
			C216.4,252.8,215.2,251.7,215.2,251.7"/>
	</g>
	<polygon class="st0" points="135.7,167.3 131.7,178.7 141,178.7 136.3,167.3 	"/>
	<g>
		<path class="st0" d="M272.6,158.5c-4.5,0-11.7,2.2-11.7,19.7c0,14.8,7.2,16.9,11.7,16.9s11.9-4,10.9-18.8
			C282.6,163,277.1,158.5,272.6,158.5"/>
		<path class="st0" d="M410.4,167.9c0,0.1,0,0.2,0,0.3v0.1c0,0.1-0.1,0.2-0.1,0.3c0,0,0,0,0,0.1l0,0c-0.1,0.1-0.1,0.2-0.2,0.3l0,0
			c0,0,0,0-0.1,0.1s-0.1,0.1-0.2,0.2c0,0-0.1,0-0.1,0.1c-0.1,0-0.2,0.1-0.2,0.1h-0.1c-0.1,0-0.2,0-0.4,0c-0.1,0-0.2,0-0.4,0h-0.1
			c-0.1,0-0.1-0.1-0.2-0.1h-0.1l0,0c-0.1-0.1-0.2-0.1-0.2-0.2l0,0l-0.1-0.1c0-0.1-0.1-0.1-0.1-0.2c0,0,0-0.1-0.1-0.1
			c0-0.1-0.1-0.1-0.1-0.2v-0.1c0-0.1,0-0.2,0-0.3l0,0l0,0l0,0c0-0.1,0-0.2,0-0.3v-0.1c0-0.1,0.1-0.1,0.1-0.2v-0.1
			c0.5-0.7,1.4-1,2.2-0.5c0.1,0.1,0.2,0.1,0.3,0.2l0,0l0,0l0.1,0.1c0,0.1,0.1,0.1,0.1,0.2c0,0,0,0.1,0.1,0.1c0,0.1,0.1,0.2,0.1,0.2
			v0.1C410.4,167.6,410.4,167.8,410.4,167.9L410.4,167.9L410.4,167.9L410.4,167.9 M405.8,163c-0.3,0.2-0.5,0.2-0.8,0.2
			c-0.5,0-1-0.3-1.3-0.8c-0.2-0.3-0.2-0.5-0.2-0.8c0-0.5,0.3-1,0.8-1.3c0.7-0.5,1.7-0.2,2.2,0.5c0.2,0.3,0.2,0.5,0.2,0.8
			C406.6,162.2,406.3,162.7,405.8,163 M406.4,174.9c-0.3,0.5-0.8,0.8-1.3,0.8c-0.3,0-0.6-0.1-0.8-0.2c-0.5-0.3-0.8-0.8-0.8-1.4
			c0-0.3,0.1-0.6,0.2-0.8c0.5-0.7,1.4-1,2.2-0.5c0.5,0.3,0.8,0.8,0.7,1.4C406.6,174.4,406.5,174.7,406.4,174.9 M402,156.8
			c-0.3,0.2-0.5,0.2-0.8,0.2c-0.5,0-1-0.3-1.3-0.8c-0.2-0.3-0.2-0.5-0.2-0.8c0-0.5,0.3-1.1,0.7-1.3c0.7-0.5,1.7-0.2,2.2,0.5
			c0.2,0.3,0.2,0.5,0.2,0.8C402.8,156,402.5,156.5,402,156.8 M402.6,181.1c-0.3,0.5-0.8,0.8-1.4,0.8c-0.3,0-0.6-0.1-0.8-0.2
			c-0.5-0.3-0.7-0.8-0.7-1.4c0-0.3,0.1-0.6,0.2-0.8c0.5-0.7,1.4-1,2.2-0.5c0.5,0.3,0.8,0.8,0.8,1.3
			C402.8,180.6,402.7,180.9,402.6,181.1 M398.2,150.6c-0.3,0.2-0.5,0.2-0.8,0.2c-0.5,0-1-0.3-1.3-0.8c-0.1-0.3-0.2-0.5-0.2-0.8
			c0-0.5,0.3-1.1,0.8-1.3c0.7-0.5,1.7-0.2,2.2,0.5c0.2,0.3,0.2,0.5,0.2,0.8C399,149.8,398.7,150.3,398.2,150.6 M398.7,187.3
			c-0.3,0.5-0.8,0.8-1.3,0.8c-0.3,0-0.6-0.1-0.8-0.2c-0.5-0.3-0.8-0.8-0.8-1.3c0-0.3,0.1-0.6,0.2-0.8c0.5-0.7,1.4-1,2.2-0.5
			c0.5,0.3,0.8,0.8,0.7,1.3C399,186.8,398.9,187.1,398.7,187.3 M394.4,144.4c-0.3,0.2-0.5,0.2-0.8,0.2c-0.5,0-1-0.3-1.3-0.8
			c-0.2-0.3-0.2-0.5-0.2-0.8c0-0.5,0.3-1.1,0.7-1.3c0.7-0.5,1.7-0.2,2.2,0.5c0.1,0.3,0.2,0.5,0.2,0.8
			C395.2,143.6,394.9,144.1,394.4,144.4 M394.9,193.5c-0.3,0.5-0.8,0.7-1.4,0.7c-0.3,0-0.6-0.1-0.8-0.2c-0.5-0.3-0.8-0.8-0.7-1.3
			c0-0.3,0.1-0.6,0.2-0.8c0.5-0.7,1.4-1,2.2-0.5c0.5,0.3,0.8,0.8,0.8,1.3C395.2,193,395.1,193.3,394.9,193.5 M390.6,138.2
			c-0.3,0.2-0.5,0.2-0.8,0.2c-0.5,0-1-0.3-1.3-0.8c-0.1-0.3-0.2-0.5-0.2-0.8c0-0.5,0.3-1,0.8-1.3c0.7-0.5,1.7-0.2,2.2,0.5
			c0.2,0.3,0.2,0.5,0.2,0.8C391.4,137.4,391.1,137.9,390.6,138.2 M391.1,199.7c-0.3,0.5-0.8,0.7-1.3,0.7c-0.3,0-0.6-0.1-0.8-0.2
			c-0.5-0.3-0.8-0.8-0.8-1.3c0-0.3,0.1-0.6,0.2-0.8c0.5-0.7,1.4-1,2.2-0.5c0.5,0.3,0.7,0.8,0.7,1.3
			C391.4,199.2,391.3,199.5,391.1,199.7 M387.6,130.6c0,0.1,0,0.2,0,0.4c0,0,0,0,0,0.1s-0.1,0.2-0.1,0.3l0,0
			c-0.1,0.1-0.2,0.2-0.3,0.3c-0.1,0.1-0.2,0.2-0.3,0.2l0,0c0,0,0,0-0.1,0c-0.1,0.1-0.2,0.1-0.3,0.1h-0.1c-0.1,0-0.3,0.1-0.4,0.1
			s-0.2,0-0.4,0h-0.1c-0.1,0-0.1,0-0.2-0.1c0,0-0.1,0-0.1-0.1c-0.1,0-0.1-0.1-0.2-0.2c0,0-0.1,0-0.1-0.1l0,0
			c-0.1-0.1-0.1-0.2-0.2-0.3l0,0v-0.1c0-0.1-0.1-0.2-0.1-0.2v-0.1c0-0.1,0-0.2,0-0.4c0-0.1,0-0.2,0-0.3c0-0.1,0-0.1,0.1-0.2
			c0,0,0-0.1,0.1-0.1c0-0.1,0.1-0.1,0.1-0.2s0.1-0.1,0.1-0.2c0,0,0-0.1,0.1-0.1l0,0l0,0c0.1-0.1,0.2-0.1,0.3-0.2
			c0.7-0.4,1.6-0.2,2.1,0.4c0,0,0,0,0,0.1l0,0c0,0,0,0,0,0.1c0.1,0.1,0.1,0.2,0.1,0.3l0,0C387.5,130.4,387.6,130.5,387.6,130.6
			L387.6,130.6L387.6,130.6L387.6,130.6 M387.5,205.4c0,0.1,0,0.1,0,0.1c0,0.1,0,0.1,0,0.2c0,0,0,0.1-0.1,0.1c0,0.1-0.1,0.1-0.1,0.2
			c0,0,0,0,0,0.1s-0.1,0.1-0.1,0.2l-0.1,0.1l-0.1,0.1l0,0c-0.2,0.1-0.3,0.2-0.5,0.2c-0.1,0-0.2,0-0.3,0c-0.9,0-1.6-0.7-1.6-1.6
			c0-0.1,0-0.2,0-0.3c0-0.1,0-0.1,0-0.1c0-0.1,0-0.1,0-0.2l0,0c0.1-0.2,0.2-0.3,0.3-0.5c0,0,0,0,0.1,0c0.3-0.3,0.7-0.4,1.1-0.4
			s0.8,0.2,1.1,0.4l0,0c0.1,0.1,0.2,0.3,0.3,0.5c0,0,0,0,0,0.1v0.1c0,0.1,0,0.1,0,0.2s0,0.2,0,0.3S387.5,205.3,387.5,205.4
			 M380,197.6h-36.6v-2.9h4.6v-35.4h-4.6v-2.9v-0.6H379v11.4h-4v-4.6c0-3.5-4-3.3-4-3.3h-14.1v15.1h8.8c1.9,0,1.3-7,1.3-7h4.1V185
			h-4.8v-5.5c0-2.3-1.1-2.2-1.1-2.2h-8.5v17.4h17.8c0,0,1.3-1.8,2.2-4.4c0.8-2.3,0.5-5,0.5-5h4L380,197.6z M378.7,206.7
			c-0.9,0-1.6-0.7-1.6-1.6s0.7-1.6,1.6-1.6s1.6,0.7,1.6,1.6S379.6,206.7,378.7,206.7 M371.4,206.7c-0.9,0-1.6-0.7-1.6-1.6
			s0.7-1.6,1.6-1.6s1.6,0.7,1.6,1.6S372.3,206.7,371.4,206.7 M364.1,206.7c-0.9,0-1.6-0.7-1.6-1.6s0.7-1.6,1.6-1.6s1.6,0.7,1.6,1.6
			S365,206.7,364.1,206.7 M356.8,206.7c-0.9,0-1.6-0.7-1.6-1.6s0.7-1.6,1.6-1.6s1.6,0.7,1.6,1.6S357.7,206.7,356.8,206.7
			 M349.5,206.7c-0.9,0-1.6-0.7-1.6-1.6s0.7-1.6,1.6-1.6s1.6,0.7,1.6,1.6S350.4,206.7,349.5,206.7 M342.2,206.7
			c-0.9,0-1.6-0.7-1.6-1.6s0.7-1.6,1.6-1.6s1.6,0.7,1.6,1.6S343.1,206.7,342.2,206.7 M336.3,159.1v38.6h-1.8l-30.3-32h-0.8v28.4h6.1
			v3.5H294v-3.5h0.8h5.1v-32.6l-2.7-2.6h-3.1v-3.7h12.8l26.2,27.4l0.1-23.5h-6.3v-3.9H341v3.9L336.3,159.1L336.3,159.1z
			 M334.9,206.7c-0.9,0-1.6-0.7-1.6-1.6s0.7-1.6,1.6-1.6s1.6,0.7,1.6,1.6S335.8,206.7,334.9,206.7 M327.6,206.7
			c-0.9,0-1.6-0.7-1.6-1.6s0.7-1.6,1.6-1.6s1.6,0.7,1.6,1.6S328.5,206.7,327.6,206.7 M318.8,205.1c0-0.9,0.7-1.6,1.6-1.6
			s1.6,0.7,1.6,1.6s-0.7,1.6-1.6,1.6S318.8,206,318.8,205.1 M311.5,205.1c0-0.9,0.7-1.6,1.6-1.6s1.6,0.7,1.6,1.6s-0.7,1.6-1.6,1.6
			S311.5,206,311.5,205.1 M304.2,205.1c0-0.9,0.7-1.6,1.6-1.6s1.6,0.7,1.6,1.6s-0.7,1.6-1.6,1.6C304.9,206.7,304.2,206,304.2,205.1
			 M296.9,205.1c0-0.9,0.7-1.6,1.6-1.6s1.6,0.7,1.6,1.6s-0.7,1.6-1.6,1.6S296.9,206,296.9,205.1 M206.7,283.3
			c-52.9,0-98.8-29.7-122-73.4h5.1c-0.1,0.2-0.1,0.4-0.1,0.6c0,0.3,0.1,0.5,0.2,0.8l0,0c0.3,0.5,0.8,0.8,1.4,0.8
			c0.3,0,0.5-0.1,0.8-0.2c0.5-0.3,0.8-0.8,0.8-1.4c0-0.2-0.1-0.4-0.1-0.6h54l-1.2,1.2l-14.8,3.7l-3.5,3.5l14.8-3.7l-3.6,3.6
			l-14.8,3.7l-3.5,3.5l14.8-3.7l-3.6,3.6l-14.8,3.7l-3.5,3.5l17.4-4.4l-4.4,17.4l3.5-3.5l3.7-14.8l3.6-3.6l-3.7,14.8l3.5-3.5
			l3.7-14.8l3.6-3.6l-3.7,14.8l3.5-3.5l3.7-14.8l3.2-3.2h112.1l3.2,3.2l3.7,14.8l3.5,3.5l-3.7-14.8l3.6,3.6l3.7,14.8l3.5,3.5
			l-3.7-14.8l3.6,3.6l3.7,14.8l3.5,3.5l-4.4-17.4l17.4,4.4l-3.5-3.5l-14.8-3.7l-3.6-3.6l14.8,3.7l-3.5-3.5l-14.8-3.7l-3.6-3.6
			l14.8,3.7l-3.5-3.5l-14.8-3.7l-1.2-1.2h54.1c0,0.1-0.1,0.3-0.1,0.4c0,0.5,0.3,1.1,0.8,1.4c0.2,0.1,0.5,0.2,0.8,0.2
			c0.6,0,1.1-0.3,1.4-0.8c0.1-0.3,0.2-0.5,0.2-0.8c0-0.1,0-0.3-0.1-0.4h4.9C305.5,253.6,259.6,283.3,206.7,283.3 M79.7,206.7
			c-0.9,0-1.6-0.7-1.6-1.6s0.7-1.6,1.6-1.6c0.9,0,1.6,0.7,1.6,1.6S80.6,206.7,79.7,206.7 M88.6,205.1c0,0.9-0.7,1.6-1.6,1.6
			c-0.9,0-1.6-0.7-1.6-1.6s0.7-1.6,1.6-1.6C87.9,203.5,88.6,204.2,88.6,205.1 M62.4,197.6l1.2-4.1h7.6v-17.1h-16l-12.6,16.9h8.3
			l-1.5,4.3h-18l1.1-4.2h4.6l41.4-56.5h3.4l2.3,56.5h5.4l-1.4,4.2L62.4,197.6L62.4,197.6z M72.4,206.7c-0.9,0-1.6-0.7-1.6-1.6
			s0.7-1.6,1.6-1.6c0.9,0,1.6,0.7,1.6,1.6S73.3,206.7,72.4,206.7 M65.1,206.7c-0.9,0-1.6-0.7-1.6-1.6s0.7-1.6,1.6-1.6
			c0.9,0,1.6,0.7,1.6,1.6S66,206.7,65.1,206.7 M57.8,206.7c-0.9,0-1.6-0.7-1.6-1.6s0.7-1.6,1.6-1.6c0.9,0,1.6,0.7,1.6,1.6
			S58.7,206.7,57.8,206.7 M50.6,206.7c-0.9,0-1.6-0.7-1.6-1.6s0.7-1.6,1.6-1.6c0.9,0,1.6,0.7,1.6,1.6S51.4,206.7,50.6,206.7
			 M43.3,206.7c-0.9,0-1.6-0.7-1.6-1.6s0.7-1.6,1.6-1.6s1.6,0.7,1.6,1.6S44.1,206.7,43.3,206.7 M36,206.7c-0.9,0-1.6-0.7-1.6-1.6
			s0.7-1.6,1.6-1.6s1.6,0.7,1.6,1.6S36.8,206.7,36,206.7 M30.2,130.9c0,0.2-0.1,0.4-0.2,0.5l0,0l-0.1,0.1l-0.1,0.1l-0.1,0.1
			l-0.1,0.1c0,0,0,0-0.1,0c-0.2,0.1-0.3,0.2-0.5,0.2c-0.1,0-0.2,0-0.3,0c-0.1,0-0.2,0-0.3,0c-0.1,0-0.2-0.1-0.3-0.1l0,0
			c-0.1,0-0.1-0.1-0.2-0.1c0,0,0,0-0.1,0l-0.1-0.1l-0.1-0.1c0,0-0.1-0.1-0.1-0.2c0,0,0-0.1-0.1-0.1c0,0,0,0,0-0.1
			c-0.1-0.2-0.2-0.3-0.2-0.5c0-0.1,0-0.2,0-0.3c0-0.1,0-0.2,0-0.3c0.1-0.7,0.8-1.3,1.5-1.3c0.4,0,0.8,0.2,1.1,0.4l0,0
			c0.2,0.2,0.3,0.4,0.4,0.7v0.1c0,0.1,0,0.2,0,0.3C30.3,130.7,30.2,130.8,30.2,130.9 M30.2,205.5v0.1c0,0.1,0,0.1-0.1,0.2
			c0,0,0,0.1-0.1,0.1c0,0.1-0.1,0.1-0.1,0.2l-0.1,0.1l0,0c-0.1,0.1-0.2,0.2-0.3,0.2l0,0c0,0,0,0-0.1,0s-0.2,0.1-0.3,0.1H29
			c-0.1,0-0.2,0-0.4,0c-0.1,0-0.2,0-0.4,0h-0.1c-0.1,0-0.1,0-0.2-0.1c-0.1,0-0.1-0.1-0.1-0.1l-0.1-0.1c-0.1-0.1-0.2-0.1-0.2-0.2
			s-0.1-0.1-0.1-0.2l0,0v-0.1c0-0.1-0.1-0.1-0.1-0.2v-0.1c0-0.1,0-0.2,0-0.3l0,0l0,0l0,0c0-0.1,0-0.2,0-0.4v-0.1
			c0-0.1,0.1-0.1,0.1-0.2c0,0,0-0.1,0.1-0.1c0-0.1,0.1-0.1,0.1-0.2l0.1-0.1l0,0l0,0c0.1-0.1,0.2-0.2,0.3-0.2
			c0.6-0.4,1.4-0.3,1.9,0.2l0,0l0,0c0,0,0,0.1,0.1,0.1c0,0.1,0.1,0.1,0.1,0.2l0,0c0,0,0,0,0,0.1s0.1,0.2,0.1,0.3v0.1
			c0,0.1,0,0.2,0,0.4C30.3,205.2,30.2,205.3,30.2,205.5 M26.2,137.7c-0.3,0.5-0.8,0.8-1.3,0.8c-0.3,0-0.6-0.1-0.8-0.2
			c-0.5-0.3-0.8-0.8-0.8-1.4c0-0.3,0.1-0.6,0.2-0.8c0.5-0.7,1.4-1,2.2-0.5c0.5,0.3,0.8,0.8,0.7,1.3
			C26.4,137.1,26.4,137.4,26.2,137.7 M25.7,200.2c-0.3,0.2-0.5,0.2-0.8,0.2c-0.5,0-1-0.3-1.3-0.7c-0.1-0.3-0.2-0.5-0.2-0.8
			c0-0.5,0.3-1.1,0.8-1.4c0.7-0.5,1.7-0.2,2.2,0.5c0.2,0.3,0.2,0.5,0.2,0.8C26.5,199.4,26.2,200,25.7,200.2 M22.4,143.9
			c-0.3,0.5-0.8,0.8-1.3,0.8c-0.3,0-0.6-0.1-0.8-0.2c-0.5-0.3-0.7-0.8-0.7-1.3c0-0.3,0.1-0.6,0.2-0.8c0.5-0.7,1.4-1,2.2-0.5
			c0.5,0.3,0.8,0.8,0.8,1.3C22.6,143.3,22.6,143.6,22.4,143.9 M21.9,194c-0.3,0.2-0.5,0.2-0.8,0.2c-0.5,0-1.1-0.3-1.3-0.7
			c-0.2-0.3-0.2-0.5-0.2-0.8c0-0.5,0.3-1,0.7-1.3c0.7-0.5,1.7-0.2,2.2,0.5c0.2,0.3,0.2,0.5,0.2,0.8C22.6,193.2,22.4,193.7,21.9,194
			 M18.6,150.1c-0.3,0.5-0.8,0.8-1.3,0.8c-0.3,0-0.6-0.1-0.8-0.2c-0.5-0.3-0.8-0.8-0.8-1.4c0-0.3,0.1-0.6,0.2-0.8
			c0.5-0.7,1.4-1,2.2-0.5c0.5,0.3,0.7,0.8,0.7,1.3C18.8,149.5,18.8,149.8,18.6,150.1 M18.1,187.8c-0.3,0.2-0.5,0.2-0.8,0.2
			c-0.5,0-1-0.3-1.3-0.7c-0.2-0.3-0.2-0.5-0.2-0.8c0-0.5,0.3-1,0.8-1.3c0.7-0.5,1.7-0.2,2.2,0.5c0.2,0.3,0.2,0.5,0.2,0.8
			C18.8,187,18.6,187.5,18.1,187.8 M14.8,156.3c-0.3,0.5-0.8,0.8-1.4,0.8c-0.3,0-0.6-0.1-0.8-0.2c-0.5-0.3-0.8-0.8-0.7-1.4
			c0-0.3,0.1-0.6,0.2-0.8c0.5-0.7,1.4-1,2.2-0.5c0.5,0.3,0.8,0.8,0.8,1.3C15,155.8,14.9,156,14.8,156.3 M14.3,181.6
			c-0.3,0.2-0.5,0.2-0.8,0.2c-0.5,0-1.1-0.3-1.3-0.8c-0.2-0.3-0.2-0.5-0.2-0.8c0-0.5,0.3-1.1,0.7-1.3c0.7-0.5,1.7-0.2,2.2,0.5
			c0.1,0.2,0.2,0.5,0.2,0.8C15,180.8,14.8,181.3,14.3,181.6 M11,162.5c-0.3,0.5-0.8,0.8-1.3,0.8c-0.3,0-0.6-0.1-0.8-0.2
			c-0.5-0.3-0.8-0.8-0.8-1.4c0-0.3,0.1-0.6,0.2-0.8c0.5-0.7,1.4-1,2.2-0.5c0.5,0.3,0.7,0.8,0.7,1.4C11.2,162,11.1,162.2,11,162.5
			 M10.5,175.4c-0.3,0.2-0.5,0.2-0.8,0.2c-0.5,0-1-0.3-1.3-0.8c-0.2-0.3-0.2-0.5-0.2-0.8c0-0.5,0.3-1.1,0.8-1.4
			c0.7-0.5,1.7-0.2,2.2,0.5c0.2,0.3,0.2,0.5,0.2,0.8C11.2,174.6,11,175.1,10.5,175.4 M7.4,167.9L7.4,167.9c0,0.1,0,0.3-0.1,0.4v0.1
			c0,0.1-0.1,0.2-0.1,0.3c0,0,0,0,0,0.1l0,0c-0.1,0.1-0.1,0.2-0.2,0.3l0,0l0,0c-0.1,0.1-0.2,0.2-0.3,0.2c0,0,0,0-0.1,0
			s-0.2,0.1-0.3,0.1H6.2c-0.1,0-0.2,0-0.4,0l0,0l0,0l0,0c-0.1,0-0.2,0-0.3,0H5.4c-0.1,0-0.2-0.1-0.2-0.1H5.1l0,0
			c-0.1-0.1-0.2-0.1-0.2-0.2l0,0L4.8,169l-0.1-0.1c0-0.1-0.1-0.1-0.1-0.2c0,0,0-0.1-0.1-0.1c0-0.1,0-0.1-0.1-0.2c0-0.1,0-0.2,0-0.3
			l0,0l0,0l0,0c0-0.1,0-0.2,0-0.3v-0.1c0-0.1,0.1-0.1,0.1-0.2v-0.1c0.5-0.7,1.4-1,2.2-0.5c0.1,0.1,0.2,0.1,0.3,0.2l0,0l0,0l0,0
			c0.1,0.1,0.1,0.2,0.2,0.3v0.1c0,0.1,0.1,0.2,0.1,0.3C7.3,167.8,7.3,167.8,7.4,167.9C7.4,167.6,7.4,167.8,7.4,167.9L7.4,167.9
			L7.4,167.9 M36,129.1c0.9,0,1.6,0.7,1.6,1.6s-0.7,1.6-1.6,1.6s-1.6-0.7-1.6-1.6S35.1,129.1,36,129.1 M43.3,129.1
			c0.9,0,1.6,0.7,1.6,1.6s-0.7,1.6-1.6,1.6s-1.6-0.7-1.6-1.6C41.7,129.8,42.4,129.1,43.3,129.1 M50.6,129.1c0.9,0,1.6,0.7,1.6,1.6
			s-0.7,1.6-1.6,1.6c-0.9,0-1.6-0.7-1.6-1.6S49.7,129.1,50.6,129.1 M57.9,129.1c0.9,0,1.6,0.7,1.6,1.6s-0.7,1.6-1.6,1.6
			c-0.9,0-1.6-0.7-1.6-1.6C56.3,129.8,57,129.1,57.9,129.1 M65.1,129.1c0.9,0,1.6,0.7,1.6,1.6s-0.7,1.6-1.6,1.6
			c-0.9,0-1.6-0.7-1.6-1.6C63.6,129.8,64.3,129.1,65.1,129.1 M74,130.6c0,0.9-0.7,1.6-1.6,1.6c-0.9,0-1.6-0.7-1.6-1.6
			s0.7-1.6,1.6-1.6C73.3,129.1,74,129.8,74,130.6 M81.3,130.6c0,0.9-0.7,1.6-1.6,1.6c-0.9,0-1.6-0.7-1.6-1.6s0.7-1.6,1.6-1.6
			C80.6,129.1,81.3,129.8,81.3,130.6 M202.1,130.6c0-0.9,0.7-1.6,1.6-1.6s1.6,0.7,1.6,1.6s-0.7,1.6-1.6,1.6
			C202.8,132.2,202.1,131.5,202.1,130.6 M194.8,130.6c0-0.9,0.7-1.6,1.6-1.6s1.6,0.7,1.6,1.6s-0.7,1.6-1.6,1.6
			S194.8,131.5,194.8,130.6 M187.5,130.6c0-0.9,0.7-1.6,1.6-1.6s1.6,0.7,1.6,1.6s-0.7,1.6-1.6,1.6S187.5,131.5,187.5,130.6
			 M180.2,130.6c0-0.9,0.7-1.6,1.6-1.6s1.6,0.7,1.6,1.6s-0.7,1.6-1.6,1.6C180.9,132.2,180.2,131.5,180.2,130.6 M172.9,130.6
			c0-0.9,0.7-1.6,1.6-1.6c0.9,0,1.6,0.7,1.6,1.6s-0.7,1.6-1.6,1.6S172.9,131.5,172.9,130.6 M165.7,130.6c0-0.9,0.7-1.6,1.6-1.6
			c0.9,0,1.6,0.7,1.6,1.6s-0.7,1.6-1.6,1.6S165.7,131.5,165.7,130.6 M159.9,203.5c0.9,0,1.6,0.7,1.6,1.6s-0.7,1.6-1.6,1.6
			c-0.9,0-1.6-0.7-1.6-1.6S159.1,203.5,159.9,203.5 M158.4,130.6c0-0.9,0.7-1.6,1.6-1.6c0.9,0,1.6,0.7,1.6,1.6s-0.7,1.6-1.6,1.6
			C159.1,132.2,158.4,131.5,158.4,130.6 M151.1,130.6c0-0.9,0.7-1.6,1.6-1.6c0.9,0,1.6,0.7,1.6,1.6s-0.7,1.6-1.6,1.6
			S151.1,131.5,151.1,130.6 M143.8,130.6c0-0.9,0.7-1.6,1.6-1.6s1.6,0.7,1.6,1.6s-0.7,1.6-1.6,1.6S143.8,131.5,143.8,130.6
			 M136.5,130.6c0-0.9,0.7-1.6,1.6-1.6c0.9,0,1.6,0.7,1.6,1.6s-0.7,1.6-1.6,1.6S136.5,131.5,136.5,130.6 M129.2,130.6
			c0-0.9,0.7-1.6,1.6-1.6c0.9,0,1.6,0.7,1.6,1.6s-0.7,1.6-1.6,1.6S129.2,131.5,129.2,130.6 M121.9,130.6c0-0.9,0.7-1.6,1.6-1.6
			c0.9,0,1.6,0.7,1.6,1.6s-0.7,1.6-1.6,1.6C122.6,132.2,121.9,131.5,121.9,130.6 M114.6,130.6c0-0.9,0.7-1.6,1.6-1.6
			c0.9,0,1.6,0.7,1.6,1.6s-0.7,1.6-1.6,1.6S114.6,131.5,114.6,130.6 M107.3,130.6c0-0.9,0.7-1.6,1.6-1.6c0.9,0,1.6,0.7,1.6,1.6
			s-0.7,1.6-1.6,1.6S107.3,131.5,107.3,130.6 M100,130.6c0-0.9,0.7-1.6,1.6-1.6c0.9,0,1.6,0.7,1.6,1.6s-0.7,1.6-1.6,1.6
			S100,131.5,100,130.6 M92.7,130.6c0-0.9,0.7-1.6,1.6-1.6c0.9,0,1.6,0.7,1.6,1.6s-0.7,1.6-1.6,1.6S92.7,131.5,92.7,130.6
			 M85.4,130.6c0-0.9,0.7-1.6,1.6-1.6c0.9,0,1.6,0.7,1.6,1.6s-0.7,1.6-1.6,1.6C86.1,132.2,85.4,131.5,85.4,130.6 M95.9,205.1
			c0,0.9-0.7,1.6-1.6,1.6c-0.9,0-1.6-0.7-1.6-1.6s0.7-1.6,1.6-1.6S95.9,204.2,95.9,205.1 M103.2,205.1c0,0.9-0.7,1.6-1.6,1.6
			c-0.9,0-1.6-0.7-1.6-1.6s0.7-1.6,1.6-1.6S103.2,204.2,103.2,205.1 M110.5,205.1c0,0.9-0.7,1.6-1.6,1.6c-0.9,0-1.6-0.7-1.6-1.6
			s0.7-1.6,1.6-1.6S110.5,204.2,110.5,205.1 M117.8,205.1c0,0.9-0.7,1.6-1.6,1.6c-0.9,0-1.6-0.7-1.6-1.6s0.7-1.6,1.6-1.6
			S117.8,204.2,117.8,205.1 M107.4,197.6h-2.1L88,158.7h-3.7v-3.5h18.8v3.9h-5.5l11.8,26.1l11.4-26.4h-5.6v-3.5H128v3.7h-3
			L107.4,197.6z M125.1,205.1c0,0.9-0.7,1.6-1.6,1.6c-0.9,0-1.6-0.7-1.6-1.6s0.7-1.6,1.6-1.6C124.4,203.5,125.1,204.2,125.1,205.1
			 M132.3,205.1c0,0.9-0.7,1.6-1.6,1.6c-0.9,0-1.6-0.7-1.6-1.6s0.7-1.6,1.6-1.6S132.3,204.2,132.3,205.1 M139.6,205.1
			c0,0.9-0.7,1.6-1.6,1.6c-0.9,0-1.6-0.7-1.6-1.6s0.7-1.6,1.6-1.6C138.9,203.5,139.6,204.2,139.6,205.1 M146.9,205.1
			c0,0.9-0.7,1.6-1.6,1.6c-0.9,0-1.6-0.7-1.6-1.6s0.7-1.6,1.6-1.6S146.9,204.2,146.9,205.1 M154.2,205.1c0,0.9-0.7,1.6-1.6,1.6
			c-0.9,0-1.6-0.7-1.6-1.6s0.7-1.6,1.6-1.6S154.2,204.2,154.2,205.1 M140.3,197.6v-3.5h7.6l-5.8-12.3h-12l-4.9,12.3h6.2v3.5H119
			v-3.5h3l16-39.6h1.3l17.9,39.6h2.5v3.5H140.3z M168.8,205.1c0,0.9-0.7,1.6-1.6,1.6c-0.9,0-1.6-0.7-1.6-1.6s0.7-1.6,1.6-1.6
			S168.8,204.2,168.8,205.1 M176.1,205.1c0,0.9-0.7,1.6-1.6,1.6s-1.6-0.7-1.6-1.6s0.7-1.6,1.6-1.6
			C175.4,203.5,176.1,204.2,176.1,205.1 M183.4,205.1c0,0.9-0.7,1.6-1.6,1.6s-1.6-0.7-1.6-1.6s0.7-1.6,1.6-1.6
			C182.7,203.5,183.4,204.2,183.4,205.1 M190.7,205.1c0,0.9-0.7,1.6-1.6,1.6s-1.6-0.7-1.6-1.6s0.7-1.6,1.6-1.6
			S190.7,204.2,190.7,205.1 M198,205.1c0,0.9-0.7,1.6-1.6,1.6s-1.6-0.7-1.6-1.6s0.7-1.6,1.6-1.6S198,204.2,198,205.1 M205.3,205.1
			c0,0.9-0.7,1.6-1.6,1.6s-1.6-0.7-1.6-1.6s0.7-1.6,1.6-1.6S205.3,204.2,205.3,205.1 M203.2,159.1v38.6h-1.8l-30.3-32h-0.8v28.4h6.1
			v3.5H161v-3.5h0.8h5.1v-32.6l-2.7-2.6H161v-3.7h12.8l26.2,27.4l0.1-23.5h-6.3v-3.9h14.1v3.9L203.2,159.1L203.2,159.1z
			 M245.9,130.6c0-0.9,0.7-1.6,1.6-1.6s1.6,0.7,1.6,1.6s-0.7,1.6-1.6,1.6S245.9,131.5,245.9,130.6 M238.6,130.6
			c0-0.9,0.7-1.6,1.6-1.6s1.6,0.7,1.6,1.6s-0.7,1.6-1.6,1.6S238.6,131.5,238.6,130.6 M231.3,130.6c0-0.9,0.7-1.6,1.6-1.6
			s1.6,0.7,1.6,1.6s-0.7,1.6-1.6,1.6S231.3,131.5,231.3,130.6 M224,130.6c0-0.9,0.7-1.6,1.6-1.6s1.6,0.7,1.6,1.6s-0.7,1.6-1.6,1.6
			S224,131.5,224,130.6 M216.7,130.6c0-0.9,0.7-1.6,1.6-1.6s1.6,0.7,1.6,1.6s-0.7,1.6-1.6,1.6C217.4,132.2,216.7,131.5,216.7,130.6
			 M209.4,130.6c0-0.9,0.7-1.6,1.6-1.6s1.6,0.7,1.6,1.6s-0.7,1.6-1.6,1.6S209.4,131.5,209.4,130.6 M212.6,205.1
			c0,0.9-0.7,1.6-1.6,1.6s-1.6-0.7-1.6-1.6s0.7-1.6,1.6-1.6S212.6,204.2,212.6,205.1 M219.8,205.1c0,0.9-0.7,1.6-1.6,1.6
			s-1.6-0.7-1.6-1.6s0.7-1.6,1.6-1.6C219.1,203.5,219.8,204.2,219.8,205.1 M227.1,205.1c0,0.9-0.7,1.6-1.6,1.6s-1.6-0.7-1.6-1.6
			s0.7-1.6,1.6-1.6S227.1,204.2,227.1,205.1 M234.4,205.1c0,0.9-0.7,1.6-1.6,1.6s-1.6-0.7-1.6-1.6s0.7-1.6,1.6-1.6
			S234.4,204.2,234.4,205.1 M241.7,205.1c0,0.9-0.7,1.6-1.6,1.6s-1.6-0.7-1.6-1.6s0.7-1.6,1.6-1.6S241.7,204.2,241.7,205.1
			 M249,205.1c0,0.9-0.7,1.6-1.6,1.6s-1.6-0.7-1.6-1.6s0.7-1.6,1.6-1.6S249,204.2,249,205.1 M244.4,167.5v-7l-0.2-1.4h-10.9v35.7
			h4.7v2.9h-18.5v-2.9h4.8v-35.7l-6.9-0.2c0,0-3.3,0.5-4,4.5s-0.1,4.6-0.1,4.6H209l0.6-12.1h39.7v11.6H244.4z M289.6,130.6
			c0-0.9,0.7-1.6,1.6-1.6s1.6,0.7,1.6,1.6s-0.7,1.6-1.6,1.6C290.3,132.2,289.6,131.5,289.6,130.6 M282.3,130.6
			c0-0.9,0.7-1.6,1.6-1.6s1.6,0.7,1.6,1.6s-0.7,1.6-1.6,1.6S282.3,131.5,282.3,130.6 M275,130.6c0-0.9,0.7-1.6,1.6-1.6
			s1.6,0.7,1.6,1.6s-0.7,1.6-1.6,1.6S275,131.5,275,130.6 M267.7,130.6c0-0.9,0.7-1.6,1.6-1.6s1.6,0.7,1.6,1.6s-0.7,1.6-1.6,1.6
			C268.4,132.2,267.7,131.5,267.7,130.6 M260.5,130.6c0-0.9,0.7-1.6,1.6-1.6s1.6,0.7,1.6,1.6s-0.7,1.6-1.6,1.6
			S260.5,131.5,260.5,130.6 M253.2,130.6c0-0.9,0.7-1.6,1.6-1.6s1.6,0.7,1.6,1.6s-0.7,1.6-1.6,1.6
			C253.9,132.2,253.2,131.5,253.2,130.6 M256.3,205.1c0,0.9-0.7,1.6-1.6,1.6s-1.6-0.7-1.6-1.6s0.7-1.6,1.6-1.6
			C255.6,203.5,256.3,204.2,256.3,205.1 M263.6,205.1c0,0.9-0.7,1.6-1.6,1.6s-1.6-0.7-1.6-1.6s0.7-1.6,1.6-1.6
			S263.6,204.2,263.6,205.1 M270.9,205.1c0,0.9-0.7,1.6-1.6,1.6s-1.6-0.7-1.6-1.6s0.7-1.6,1.6-1.6
			C270.2,203.5,270.9,204.2,270.9,205.1 M278.2,205.1c0,0.9-0.7,1.6-1.6,1.6s-1.6-0.7-1.6-1.6s0.7-1.6,1.6-1.6
			S278.2,204.2,278.2,205.1 M285.5,205.1c0,0.9-0.7,1.6-1.6,1.6s-1.6-0.7-1.6-1.6s0.7-1.6,1.6-1.6S285.5,204.2,285.5,205.1
			 M292.8,205.1c0,0.9-0.7,1.6-1.6,1.6s-1.6-0.7-1.6-1.6s0.7-1.6,1.6-1.6C292.1,203.5,292.8,204.2,292.8,205.1 M272.6,197.6
			c-3.8,0-21.1,1.2-21.1-21c0-23.6,19.3-21.3,21.1-21.4c1.8-0.1,20.8,0,20.8,21.4C293.4,195.9,280.4,197.6,272.6,197.6 M300.1,130.6
			c0,0.9-0.7,1.6-1.6,1.6s-1.6-0.7-1.6-1.6s0.7-1.6,1.6-1.6C299.3,129.1,300.1,129.8,300.1,130.6 M307.3,130.6
			c0,0.9-0.7,1.6-1.6,1.6s-1.6-0.7-1.6-1.6s0.7-1.6,1.6-1.6C306.6,129.1,307.3,129.8,307.3,130.6 M314.6,130.6
			c0,0.9-0.7,1.6-1.6,1.6s-1.6-0.7-1.6-1.6s0.7-1.6,1.6-1.6C313.9,129.1,314.6,129.8,314.6,130.6 M321.9,130.6
			c0,0.9-0.7,1.6-1.6,1.6s-1.6-0.7-1.6-1.6s0.7-1.6,1.6-1.6C321.2,129.1,321.9,129.8,321.9,130.6 M329.2,130.6
			c0,0.9-0.7,1.6-1.6,1.6s-1.6-0.7-1.6-1.6s0.7-1.6,1.6-1.6C328.5,129.1,329.2,129.8,329.2,130.6 M336.5,130.6
			c0,0.9-0.7,1.6-1.6,1.6s-1.6-0.7-1.6-1.6s0.7-1.6,1.6-1.6C335.8,129.1,336.5,129.8,336.5,130.6 M206.7,7.3
			c69.6,0,127.1,51.5,136.6,118.5H339c0.2-0.3,0.3-0.6,0.3-0.9c0-0.1,0-0.2,0-0.2c-0.1-0.9-0.9-1.4-1.8-1.3
			c-0.8,0.1-1.3,0.8-1.3,1.6c0,0.1,0,0.2,0,0.2c0,0.2,0.1,0.5,0.3,0.6H234.8l42.5-42.5l-2.1,12.3l25.1-37.2L263,83.5l12.3-2.1
			l-44.4,44.4h-48.3l-44.4-44.4l12.3,2.1l-37.2-25.1l25.1,37.2l-2.1-12.3l42.5,42.5H77.1c0-0.1,0.1-0.2,0.1-0.3c0-0.1,0-0.2,0-0.2
			c0-0.8-0.6-1.4-1.3-1.6c-0.9-0.1-1.7,0.5-1.8,1.3c0,0.1,0,0.2,0,0.2c0,0.2,0,0.4,0.1,0.6h-4.1C79.6,58.9,137.1,7.3,206.7,7.3
			 M343.8,130.6c0,0.9-0.7,1.6-1.6,1.6s-1.6-0.7-1.6-1.6s0.7-1.6,1.6-1.6C343.1,129.1,343.8,129.8,343.8,130.6 M349.5,129.1
			c0.9,0,1.6,0.7,1.6,1.6s-0.7,1.6-1.6,1.6s-1.6-0.7-1.6-1.6S348.7,129.1,349.5,129.1 M356.8,129.1c0.9,0,1.6,0.7,1.6,1.6
			s-0.7,1.6-1.6,1.6s-1.6-0.7-1.6-1.6C355.2,129.8,355.9,129.1,356.8,129.1 M364.1,129.1c0.9,0,1.6,0.7,1.6,1.6s-0.7,1.6-1.6,1.6
			s-1.6-0.7-1.6-1.6S363.2,129.1,364.1,129.1 M371.4,129.1c0.9,0,1.6,0.7,1.6,1.6s-0.7,1.6-1.6,1.6s-1.6-0.7-1.6-1.6
			S370.5,129.1,371.4,129.1 M378.7,129.1c0.9,0,1.6,0.7,1.6,1.6s-0.7,1.6-1.6,1.6s-1.6-0.7-1.6-1.6S377.8,129.1,378.7,129.1
			 M388.8,125.8h-38c-4.2-31.4-18.5-60.5-41.3-83.2C282,15.1,245.6,0,206.7,0c-38.8,0-75.3,15.1-102.8,42.6
			c-22.8,22.8-37.1,51.8-41.3,83.2H25.8L0,167.9L25.8,210h50.6c6.9,14,16.2,26.8,27.5,38.2c27.5,27.4,64,42.6,102.8,42.6
			s75.3-15.1,102.8-42.6c11.3-11.3,20.6-24.2,27.5-38.2h51.8l25.8-42.1L388.8,125.8z"/>
	</g>
	<polygon class="st0" points="57.8,172.9 71.1,172.9 71.1,155.2 70.3,155.2 	"/>
</g>
</svg>
